<?xml version="1.0" encoding="UTF-8" standalone="no"?>
<!-- Generator: Adobe Illustrator 16.0.0, SVG Export Plug-In . SVG Version: 6.00 Build 0)  -->

<svg
   xmlns:dc="http://purl.org/dc/elements/1.1/"
   xmlns:cc="http://creativecommons.org/ns#"
   xmlns:rdf="http://www.w3.org/1999/02/22-rdf-syntax-ns#"
   xmlns:svg="http://www.w3.org/2000/svg"
   xmlns="http://www.w3.org/2000/svg"
   xmlns:sodipodi="http://sodipodi.sourceforge.net/DTD/sodipodi-0.dtd"
   xmlns:inkscape="http://www.inkscape.org/namespaces/inkscape"
   version="1.1"
   id="Layer_1"
   x="0px"
   y="0px"
   width="502.19156"
   height="502.19156"
   viewBox="0 0 502.19156 502.19156"
   enable-background="new 0 0 512 512"
   xml:space="preserve"
   sodipodi:docname="calendar.svg"
   inkscape:version="0.92.1 r15371"><metadata
     id="metadata9"><rdf:RDF><cc:Work
         rdf:about=""><dc:format>image/svg+xml</dc:format><dc:type
           rdf:resource="http://purl.org/dc/dcmitype/StillImage" /></cc:Work></rdf:RDF></metadata><defs
     id="defs7" /><sodipodi:namedview
     pagecolor="#ffffff"
     bordercolor="#666666"
     borderopacity="1"
     objecttolerance="10"
     gridtolerance="10"
     guidetolerance="10"
     inkscape:pageopacity="0"
     inkscape:pageshadow="2"
     inkscape:window-width="1920"
     inkscape:window-height="1001"
     id="namedview5"
     showgrid="false"
     inkscape:zoom="0.4609375"
     inkscape:cx="256.13735"
     inkscape:cy="256.05421"
     inkscape:window-x="-9"
     inkscape:window-y="-9"
     inkscape:window-maximized="1"
     inkscape:current-layer="Layer_1" /><path
     id="path2"
     style="fill:#172727;fill-opacity:1;stroke-width:0.98084289"
     d="m 423.72414,376.64368 c 8.67458,0 15.69349,7.01891 15.69349,15.69349 0,8.67457 -7.01891,15.69348 -15.69349,15.69348 h -62.77395 c -8.67457,0 -15.69348,-7.01891 -15.69348,-15.69348 v -62.77395 c 0,-8.67457 7.01891,-15.69348 15.69348,-15.69348 8.67458,0 15.69349,7.01891 15.69349,15.69348 v 47.08046 z M 313.86974,251.09579 h -62.77395 v -62.77395 h 62.77395 z M 31.386973,373.51774 c 0,1.65468 1.195647,3.12594 2.620812,3.12594 H 219.70882 v 31.38697 H 34.007785 C 15.218758,408.03065 0,392.52157 0,373.51774 V 97.287845 C 0,78.222222 15.218758,62.773946 34.007785,62.773946 h 13.072674 v 15.693486 c 0,17.287353 14.069211,31.386978 31.386973,31.386978 17.317763,0 31.386978,-14.099625 31.386978,-31.386978 V 62.773946 h 188.32184 v 15.693486 c 0,17.287353 14.06921,31.386978 31.38697,31.386978 17.31776,0 31.38697,-14.099625 31.38697,-31.386978 V 62.773946 h 13.08837 c 18.78903,0 33.99209,15.448276 33.99209,34.513899 V 219.70882 H 376.64368 V 156.93487 H 31.386973 Z M 156.93487,345.25671 v -62.77395 h 62.77395 v 62.77395 z m 0,-94.16092 v -62.77395 h 62.77395 v 62.77395 z M 62.773946,345.25671 V 282.48276 H 125.5479 v 62.77395 z M 125.5479,188.32184 v 62.77395 H 62.773946 v -62.77395 z m 345.2567,188.32184 c 0,51.92386 -42.23804,94.16092 -94.16092,94.16092 -51.92288,0 -94.16092,-42.23804 -94.16092,-94.16092 0,-51.92288 42.23804,-94.16092 94.16092,-94.16092 51.92288,0 94.16092,42.23706 94.16092,94.16092 z m 31.38697,0 c 0,-69.33284 -56.21505,-125.54789 -125.54789,-125.54789 -69.33284,0 -125.54789,56.21505 -125.54789,125.54789 0,69.33284 56.21505,125.54789 125.54789,125.54789 69.33284,0 125.54789,-56.21406 125.54789,-125.54789 z M 329.56322,94.160915 c -8.67457,0 -15.69348,-7.018908 -15.69348,-15.693483 V 15.693486 C 313.86974,7.0189113 320.88865,0 329.56322,0 c 8.67458,0 15.69349,7.0189113 15.69349,15.693486 v 62.773946 c 0,8.674575 -7.01891,15.693483 -15.69349,15.693483 z M 62.773946,78.467432 c 0,8.674575 7.018912,15.693483 15.693486,15.693483 8.674575,0 15.693483,-7.018908 15.693483,-15.693483 V 15.693486 C 94.160915,7.0189113 87.142007,0 78.467432,0 69.792858,0 62.773946,7.0189113 62.773946,15.693486 Z"
     inkscape:connector-curvature="0" /></svg>