<?xml version="1.0" encoding="UTF-8" standalone="no"?>
<svg
   xmlns:dc="http://purl.org/dc/elements/1.1/"
   xmlns:cc="http://creativecommons.org/ns#"
   xmlns:rdf="http://www.w3.org/1999/02/22-rdf-syntax-ns#"
   xmlns:svg="http://www.w3.org/2000/svg"
   xmlns="http://www.w3.org/2000/svg"
   xmlns:sodipodi="http://sodipodi.sourceforge.net/DTD/sodipodi-0.dtd"
   xmlns:inkscape="http://www.inkscape.org/namespaces/inkscape"
   id="master-artboard"
   viewBox="0 0 400 400"
   version="1.1"
   x="0px"
   y="0px"
   style="enable-background:new 0 0 1400 980;"
   width="400px"
   height="400px"
   sodipodi:docname="club.svg"
   inkscape:version="0.92.1 r15371">
  <metadata
     id="metadata5060">
    <rdf:RDF>
      <cc:Work
         rdf:about="">
        <dc:format>image/svg+xml</dc:format>
        <dc:type
           rdf:resource="http://purl.org/dc/dcmitype/StillImage" />
      </cc:Work>
    </rdf:RDF>
  </metadata>
  <defs
     id="defs5058" />
  <sodipodi:namedview
     pagecolor="#ffffff"
     bordercolor="#666666"
     borderopacity="1"
     objecttolerance="10"
     gridtolerance="10"
     guidetolerance="10"
     inkscape:pageopacity="0"
     inkscape:pageshadow="2"
     inkscape:window-width="1920"
     inkscape:window-height="1001"
     id="namedview5056"
     showgrid="false"
     inkscape:zoom="0.59"
     inkscape:cx="200"
     inkscape:cy="200"
     inkscape:window-x="-9"
     inkscape:window-y="-9"
     inkscape:window-maximized="1"
     inkscape:current-layer="master-artboard" />
  <path
     id="XMLID_482_"
     transform="matrix(1.7196915149688716, 0, 0, 1.5732550621032715, -732.8631846264119, -570.3762630447054)"
     style="fill:#172727;fill-opacity:1"
     d="m 541.8,563 c 18.3,-5.5 32.9,-14.8 43.3,-27.8 9.2,-11.5 15.6,-26.2 18.8,-43.6 3.7,-20.3 2.4,-39.6 1,-51 l -63.1,-23.1 c 0.58324,0 0.39513,145.03491 0,145.5 z m -0.3,20.1 c 0.1,0 0.2,0.1 0.3,0.1 0.1,0 0.2,-0.1 0.3,-0.1 110,-28.1 80.6,-156.6 80.6,-156.6 l -80.6,-29.5 -0.3,-0.1 -0.3,0.1 -80.6,29.5 c 0,0 -29.4,128.5 80.6,156.6 z m -67.9,-146.4 68.2,-25 68.2,25 c 1.6,10.9 3.7,32.8 -0.6,56 -3.4,18.3 -10.1,33.8 -19.9,46 C 578,553 562,563.1 541.7,568.9 521.4,563.1 505.4,553 493.9,538.7 484.1,526.5 477.4,511 474,492.7 c -4.1,-23.2 -2,-45.1 -0.4,-56 z m 132.19999,-45.90001 -3.59998,-7.4 -3.60003,7.4 L 590.5,392 l 5.90002,5.70001 -1.40002,8 7.20001,-3.80002 7.20001,3.80002 -1.30004,-8 L 613.90002,392 Z m -38.5,-2.5 -1.5,9.1 8.10003,-4.29998 8.09998,4.29998 -1.5,-9.1 6.5,-6.4 -9.09998,-1.29998 -4,-8.30002 -4.10003,8.30002 -9.09998,1.29998 z m -83,2.5 -3.59998,-7.4 -3.6,7.4 L 469,392 l 5.79999,5.70001 -1.4,8 7.30002,-3.80002 7.19998,3.80002 -1.39999,-8 L 492.39999,392 Z M 513.09998,380.60001 509,372.29999 l -4.10001,8.30002 -9,1.29998 6.5,6.4 -1.5,9.1 8.10001,-4.29998 8.09998,4.29998 -1.5,-9.1 6.60003,-6.4 z m 20.80004,1.29998 -2,11.20002 L 542,387.89999 552,393.10001 550.09998,381.89999 558.29999,374 547,372.39999 542,362.20001 537,372.39999 525.70001,374 Z M 471.7,579.1 c -0.4,-0.1 -0.8,-0.2 -1.2,-0.3 -0.1,0.3 -0.2,0.6 -0.2,0.9 0.4,0.1 0.8,0.2 1.2,0.3 0.1,-0.3 0.2,-0.6 0.2,-0.9 z M 450.2,574 c -1.4,4.1 -2.7,8.1 -4.1,12.2 -0.1,0.4 -0.2,0.7 -0.4,1.1 -0.1,0.4 -0.2,0.7 -0.4,1.1 -1.3,3.9 -2.6,7.8 -3.9,11.7 65.4,21.8 136.2,21.8 201.6,0 -1.3,-3.9 -2.6,-7.9 -4,-11.8 -0.1,-0.4 -0.2,-0.7 -0.4,-1.1 -0.1,-0.4 -0.2,-0.7 -0.4,-1.1 -1.4,-4.1 -2.7,-8.1 -4.1,-12.2 -6.6,2.2 -13.3,4.2 -20,5.9 -0.4,0.1 -0.8,0.2 -1.2,0.3 -0.4,0.1 -0.8,0.2 -1.2,0.3 -45.7,11.3 -93.5,11.3 -139.2,0 -0.2,0 -0.4,-0.1 -0.5,-0.1 -0.2,0.1 -0.5,0.1 -0.7,0 -0.4,-0.1 -0.8,-0.2 -1.2,-0.3 0,-0.1 0,-0.1 0,-0.2 -6.7,-1.7 -13.4,-3.7 -20,-5.9 0.1,0 0.1,0 0.1,0.1 z M 631,572.5 c -6.9,-1.8 -13.6,-3.8 -20.1,-6.1 0.9,3.7 1.9,7.4 2.8,11.1 5.9,-1.5 11.6,-3.2 17.3,-5 z m 16.9,-4.3 c -0.2,-0.2 -0.3,-0.5 -0.3,-0.8 0.2,-4.8 0.4,-9.7 0.4,-14.5 -11.4,4.7 -23,8.6 -34.7,11.8 7.2,2.5 14.6,4.6 22.3,6.5 0,0 0,0 0,0 0,0 0,0 0,0 0.1,0 0.1,0 0.2,0.1 0,0 0,0 0,0 0,0 0.1,0 0.1,0.1 0,0 0,0 0.1,0 0,0 0.1,0.1 0.1,0.1 0,0 0,0 0.1,0.1 0,0 0.1,0.1 0.1,0.1 0,0 0,0 0,0 0,0.1 0.1,0.1 0.1,0.2 0,0 0,0 0,0 1.5,4.4 3,8.8 4.6,13.3 5.9,-2 11.8,-4.3 17.6,-6.7 -3.7,-3.4 -7.2,-6.8 -10.7,-10.3 z m -174.2,-1.6 c -6.4,2.2 -13,4.3 -19.7,6 5.6,1.8 11.3,3.4 17,4.9 0.8,-3.7 1.7,-7.3 2.7,-10.9 z m -25.4,5.3 c 0.2,-0.6 0.8,-0.9 1.5,-0.7 7.4,-1.8 14.6,-3.9 21.6,-6.3 -11.8,-3.1 -23.4,-7 -34.8,-11.8 0.1,4.8 0.2,9.6 0.4,14.5 0,0.3 -0.1,0.6 -0.3,0.8 -3.5,3.5 -7.1,6.9 -10.7,10.3 5.8,2.4 11.7,4.6 17.7,6.7 1.5,-4.5 3,-9 4.6,-13.5 z M 426.15968,362.54532 H 658.75954 V 616.79526 H 426.15968 Z" />
</svg>
