<?xml version="1.0" encoding="UTF-8" standalone="no"?>
<!-- Generator: Adobe Illustrator 16.0.0, SVG Export Plug-In . SVG Version: 6.00 Build 0)  -->

<svg
   xmlns:dc="http://purl.org/dc/elements/1.1/"
   xmlns:cc="http://creativecommons.org/ns#"
   xmlns:rdf="http://www.w3.org/1999/02/22-rdf-syntax-ns#"
   xmlns:svg="http://www.w3.org/2000/svg"
   xmlns="http://www.w3.org/2000/svg"
   xmlns:sodipodi="http://sodipodi.sourceforge.net/DTD/sodipodi-0.dtd"
   xmlns:inkscape="http://www.inkscape.org/namespaces/inkscape"
   version="1.1"
   id="Capa_1"
   x="0px"
   y="0px"
   width="500"
   height="500"
   viewBox="0 0 499.99999 499.99999"
   xml:space="preserve"
   sodipodi:docname="footerBannerP1.svg"
   inkscape:version="0.92.1 r15371"><metadata
     id="metadata4650"><rdf:RDF><cc:Work
         rdf:about=""><dc:format>image/svg+xml</dc:format><dc:type
           rdf:resource="http://purl.org/dc/dcmitype/StillImage" /></cc:Work></rdf:RDF></metadata><defs
     id="defs4648" /><sodipodi:namedview
     pagecolor="#ffffff"
     bordercolor="#666666"
     borderopacity="1"
     objecttolerance="10"
     gridtolerance="10"
     guidetolerance="10"
     inkscape:pageopacity="0"
     inkscape:pageshadow="2"
     inkscape:window-width="1920"
     inkscape:window-height="1001"
     id="namedview4646"
     showgrid="false"
     inkscape:zoom="0.50188205"
     inkscape:cx="260.04001"
     inkscape:cy="271.66998"
     inkscape:window-x="-9"
     inkscape:window-y="-9"
     inkscape:window-maximized="1"
     inkscape:current-layer="Capa_1" /><rect
     style="opacity:1;fill:#121f1f;fill-opacity:1;stroke:none;stroke-width:10;stroke-miterlimit:4;stroke-dasharray:none;stroke-opacity:0"
     id="rect5195"
     width="500"
     height="500"
     x="0"
     y="0" /><g
     id="g4613"
     style="fill:#ff8c00;fill-opacity:1"
     transform="translate(9.9625006,13.9925)"><path
       d="m 457.703,161.312 c 0,-13.321 -10.786,-24.098 -24.106,-24.098 h -24.098 v 52.211 h 24.098 c 13.32,0 24.106,-10.787 24.106,-24.098 z"
       id="path4601"
       inkscape:connector-curvature="0"
       style="fill:#ff8c00;fill-opacity:1" /><path
       d="m 457.703,222.884 c 0,-13.311 -10.786,-24.097 -24.106,-24.097 h -24.098 v 52.202 h 24.098 c 13.32,0 24.106,-10.787 24.106,-24.088 z"
       id="path4603"
       inkscape:connector-curvature="0"
       style="fill:#ff8c00;fill-opacity:1" /><path
       d="m 457.703,288.483 v -4.016 c 0,-13.312 -10.786,-24.098 -24.106,-24.098 h -24.098 v 52.201 h 24.098 c 13.32,0.001 24.106,-10.776 24.106,-24.087 z"
       id="path4605"
       inkscape:connector-curvature="0"
       style="fill:#ff8c00;fill-opacity:1" /><path
       d="m 470.23,70.478 v -3.356 c 0,-13.311 -10.347,-21.038 -23.113,-17.27 l -37.608,4.36 v 55.549 L 447.5,102.56 c 12.546,-4.399 22.73,-18.771 22.73,-32.082 z"
       id="path4607"
       inkscape:connector-curvature="0"
       style="fill:#ff8c00;fill-opacity:1" /><path
       d="m 326.602,362.679 h 50.403 c 13.178,0 23.868,-10.691 23.868,-23.887 V 32.476 c 0,-13.187 -10.69,-23.887 -23.868,-23.887 H 216.422 c -13.196,0 -23.858,10.701 -23.858,23.887 v 80.574 100.31 h 32.207 V 54.575 c 0,-3.634 2.955,-6.579 6.579,-6.579 h 130.71 c 3.652,0 6.578,2.945 6.578,6.579 v 235.821 c 0,3.643 -2.936,6.58 -6.578,6.58 H 245.157 v 40.85 c -0.86,2.926 -1.76,5.346 -1.76,5.346 h 41.855 c -2.447,-2.668 -3.978,-6.195 -3.978,-10.107 0,-8.301 6.731,-15.041 15.042,-15.041 8.29,0 15.013,6.74 15.013,15.041 0,3.902 -1.521,7.43 -3.969,10.107 h 23.371 l -2.209,11.389 c -0.084,0.487 -0.715,3.547 -1.92,8.118 z"
       id="path4609"
       inkscape:connector-curvature="0"
       style="fill:#ff8c00;fill-opacity:1" /><path
       d="m 225.793,451.495 c 14,-6.99 33.574,-15.291 50.805,-27.664 26.106,-18.752 35.478,-66.928 35.478,-66.928 h -69.491 c -14.468,33.143 -44.332,61.17 -45.823,62.557 -1.836,1.713 -4.169,2.555 -6.493,2.555 -2.563,0 -5.135,-1.023 -7.009,-3.061 -3.596,-3.863 -3.366,-9.916 0.497,-13.512 0.373,-0.334 35.276,-33.105 44.992,-66.135 v -52.842 h 80.985 c 17.748,0 32.13,-13.379 32.13,-29.873 0,-16.496 -14.392,-29.864 -32.13,-29.864 H 177.216 v -93.387 l -52.297,35.209 c -15.214,9.123 -32.809,29.912 -39.292,46.426 L 1.123,443.702 c -3.663,9.906 1.932,17.939 12.498,17.939 h 176.935 c 10.557,10e-4 25.79,-5.431 35.237,-10.146 z"
       id="path4611"
       inkscape:connector-curvature="0"
       style="fill:#ff8c00;fill-opacity:1" /></g></svg>