<?xml version="1.0" encoding="utf-8"?>
<svg id="master-artboard" viewBox="0 0 1400 980" version="1.1" xmlns="http://www.w3.org/2000/svg" x="0px" y="0px" style="enable-background:new 0 0 1400 980;" width="1400px" height="980px" xmlns:xlink="http://www.w3.org/1999/xlink">

<defs>
		<path d="M 0 0 H 1400 V 980 H 0 V 0 Z" id="SVGID_1_"/>
	</defs><clipPath id="SVGID_2_">
		<use style="overflow:visible;" xlink:href="#SVGID_1_"/>
	</clipPath><path class="st1" d="M191.1,256.7c14.4,0,28.2-4,40.1-11.5l1.6-0.6l0.1-0.5c4.2-2.8,8.1-6,11.8-9.6c14.3-14.3,22.2-33.3,22.2-53.5&#10;&#9;&#9;&#9;s-7.9-39.2-22.2-53.5c-14.3-14.3-33.3-22.2-53.5-22.2s-39.2,7.9-53.5,22.2c-0.9,0.9-1.8,1.9-2.7,2.8c-0.8,0.7-1.6,1.6-2.3,2.7&#10;&#9;&#9;&#9;c-11.1,13.5-17.2,30.3-17.2,48c0,20.2,7.9,39.2,22.2,53.5C151.8,248.8,170.8,256.7,191.1,256.7z M138.4,158.5&#10;&#9;&#9;&#9;c0,0,9.5-26.7,9.2-27.5c-0.1-0.3-1-0.6-2.3-0.9c10.4-9.4,23.8-15.6,38.5-17.2l-5.8,7.2l17.9,20.4l29.4-6.2l-0.7-13&#10;&#9;&#9;&#9;c16.2,9.1,28.4,24.6,33,43.1l-13.9-7.4l-10.4,28l10.1,27.3l12.8-9.8c-4.1,12.5-11.7,23.3-21.7,31.5l0.9-5.6l-36.8,2.8l-15.8,17.7&#10;&#9;&#9;&#9;c-11.9-1.5-22.9-6-32.1-12.8c0.3,0,0.5,0,0.5,0l-7.2-28.3l-20.1-14.4c-0.7-4-1.2-8.2-1.2-12.4c0-4.6,0.5-9,1.3-13.3L138.4,158.5z" style="fill: rgb(17, 17, 16); clip-path: url('#SVGID_2_');" transform="matrix(1, 0, 0, 1, 0, 0)"/><path d="M 192.1999969482422 207.89999389648438 L 209.3000030517578 184 L 191.89999389648438 158.5 L 161.60000610351562 168.1999969482422 L 162.60000610351562 198.5 Z" class="st1" style="fill: rgb(17, 17, 16); clip-path: url('#SVGID_2_');" transform="matrix(1, 0, 0, 1, 0, 0)"/><defs style="clip-path: url('#SVGID_2_');">
			<filter id="Adobe_OpacityMaskFilter" filterUnits="userSpaceOnUse" x="115.4" y="256.7" width="151.4" height="151.4">
				<feFlood style="flood-color:white;flood-opacity:1" result="back"/>
				<feBlend in="SourceGraphic" in2="back" mode="normal"/>
			</filter>
		</defs><mask maskUnits="userSpaceOnUse" x="115.4" y="256.7" width="151.4" height="151.4" id="SVGID_3_" style="clip-path: url('#SVGID_2_');">
			<g class="st2" style="filter: url('#Adobe_OpacityMaskFilter');">
				<defs>
					<filter id="Adobe_OpacityMaskFilter_1_" filterUnits="userSpaceOnUse" x="115.4" y="256.7" width="151.4" height="151.4">
						<feFlood style="flood-color:white;flood-opacity:1" result="back"/>
						<feBlend in="SourceGraphic" in2="back" mode="normal"/>
					</filter>
				</defs>
				<mask maskUnits="userSpaceOnUse" x="115.4" y="256.7" width="151.4" height="151.4" id="SVGID_3_">
					<g class="st3" style="filter: url('#Adobe_OpacityMaskFilter_1_');">
					</g>
				</mask>
				<linearGradient id="SVGID_4_" gradientUnits="userSpaceOnUse" x1="191.0728" y1="372.5351" x2="191.0728" y2="211.9328">
					<stop offset="0" style="stop-color:#000000"/>
					<stop offset="1" style="stop-color:#FFFFFF"/>
				</linearGradient>
				<path class="st4" d="M137.5,278.9c-14.3,14.3-22.2,33.3-22.2,53.5c0,17.7,6,34.5,17.2,48c0.7,1.1,1.5,2,2.3,2.7&#10;&#9;&#9;&#9;&#9;&#9;c0.9,1,1.8,1.9,2.7,2.8c14.3,14.3,33.3,22.2,53.5,22.2s39.2-7.9,53.5-22.2c14.3-14.3,22.2-33.3,22.2-53.5&#10;&#9;&#9;&#9;&#9;&#9;c0-20.2-7.9-39.2-22.2-53.5c-3.6-3.6-7.6-6.8-11.8-9.6l-0.1-0.5l-1.6-0.6c-11.9-7.5-25.7-11.5-40.1-11.5&#10;&#9;&#9;&#9;&#9;&#9;C170.8,256.7,151.8,264.6,137.5,278.9z M123.9,345.7c-0.9-4.3-1.3-8.8-1.3-13.3c0-4.2,0.4-8.4,1.2-12.4l20.1-14.4l7.2-28.3&#10;&#9;&#9;&#9;&#9;&#9;c0,0-0.2,0-0.5,0c9.2-6.8,20.2-11.3,32.1-12.8l15.8,17.7l36.8,2.8l-0.9-5.6c9.9,8.1,17.5,19,21.7,31.5l-12.8-9.8l-10.1,27.3&#10;&#9;&#9;&#9;&#9;&#9;l10.4,28l13.9-7.4c-4.6,18.5-16.8,34-33,43.1l0.7-13l-29.4-6.2l-17.9,20.4l5.8,7.2c-14.7-1.6-28-7.8-38.5-17.2&#10;&#9;&#9;&#9;&#9;&#9;c1.3-0.3,2.3-0.6,2.3-0.9c0.2-0.9-9.2-27.5-9.2-27.5L123.9,345.7z" style="mask: url('#SVGID_3_'); fill: url('#SVGID_4_');"/>
			</g>
		</mask><linearGradient id="SVGID_5_" gradientUnits="userSpaceOnUse" x1="191.0728" y1="372.5351" x2="191.0728" y2="211.9328" style="clip-path: url('#SVGID_2_');">
			<stop offset="0" style="stop-color:#FFFFFF"/>
			<stop offset="1" style="stop-color:#000000"/>
		</linearGradient><defs style="clip-path: url('#SVGID_2_');">
			<filter id="Adobe_OpacityMaskFilter_2_" filterUnits="userSpaceOnUse" x="161.6" y="305.4" width="47.7" height="49.4">
				<feFlood style="flood-color:white;flood-opacity:1" result="back"/>
				<feBlend in="SourceGraphic" in2="back" mode="normal"/>
			</filter>
		</defs><mask maskUnits="userSpaceOnUse" x="161.6" y="305.4" width="47.7" height="49.4" id="SVGID_6_" style="clip-path: url('#SVGID_2_');">
			<g class="st6" style="filter: url('#Adobe_OpacityMaskFilter_2_');">
				<defs>
					<filter id="Adobe_OpacityMaskFilter_3_" filterUnits="userSpaceOnUse" x="161.6" y="305.4" width="47.7" height="49.4">
						<feFlood style="flood-color:white;flood-opacity:1" result="back"/>
						<feBlend in="SourceGraphic" in2="back" mode="normal"/>
					</filter>
				</defs>
				<mask maskUnits="userSpaceOnUse" x="161.6" y="305.4" width="47.7" height="49.4" id="SVGID_6_">
					<g class="st7" style="filter: url('#Adobe_OpacityMaskFilter_3_');">
					</g>
				</mask>
				<linearGradient id="SVGID_7_" gradientUnits="userSpaceOnUse" x1="185.4574" y1="372.5352" x2="185.4574" y2="211.9326">
					<stop offset="0" style="stop-color:#000000"/>
					<stop offset="1" style="stop-color:#FFFFFF"/>
				</linearGradient>
				<path d="M 192.1999969482422 305.3999938964844 L 209.3000030517578 329.29998779296875 L 191.89999389648438 354.79998779296875 L 161.60000610351562 345.1000061035156 L 162.60000610351562 314.79998779296875 Z" class="st8" style="mask: url('#SVGID_6_'); fill: url('#SVGID_7_');"/>
			</g>
		</mask><linearGradient id="SVGID_8_" gradientUnits="userSpaceOnUse" x1="185.4574" y1="372.5352" x2="185.4574" y2="211.9326" style="clip-path: url('#SVGID_2_');">
			<stop offset="0" style="stop-color:#FFFFFF"/>
			<stop offset="1" style="stop-color:#000000"/>
		</linearGradient><defs style="clip-path: url('#SVGID_2_');">
			<filter id="Adobe_OpacityMaskFilter_4_" filterUnits="userSpaceOnUse" x="460" y="256.7" width="138.3" height="162.4">
				<feFlood style="flood-color:white;flood-opacity:1" result="back"/>
				<feBlend in="SourceGraphic" in2="back" mode="normal"/>
			</filter>
		</defs><mask maskUnits="userSpaceOnUse" x="460" y="256.7" width="138.3" height="162.4" id="SVGID_9_" style="clip-path: url('#SVGID_2_');">
			<g class="st10" style="filter: url('#Adobe_OpacityMaskFilter_4_');">
				<defs>
					<filter id="Adobe_OpacityMaskFilter_5_" filterUnits="userSpaceOnUse" x="460" y="256.7" width="138.3" height="162.4">
						<feFlood style="flood-color:white;flood-opacity:1" result="back"/>
						<feBlend in="SourceGraphic" in2="back" mode="normal"/>
					</filter>
				</defs>
				<mask maskUnits="userSpaceOnUse" x="460" y="256.7" width="138.3" height="162.4" id="SVGID_9_">
					<g class="st11" style="filter: url('#Adobe_OpacityMaskFilter_5_');">
					</g>
				</mask>
				<linearGradient id="SVGID_10_" gradientUnits="userSpaceOnUse" x1="529.1485" y1="372.5351" x2="529.1485" y2="211.9328">
					<stop offset="0" style="stop-color:#000000"/>
					<stop offset="1" style="stop-color:#FFFFFF"/>
				</linearGradient>
				<path class="st12" d="M482.6,377l-7.3,8.3l-2.1-1.9l-4,4.5l11.4,10.1l4-4.5l-2.1-1.9l7.7-8.7c9.2,6.3,19.9,10.4,31.6,11.7v6.4&#10;&#9;&#9;&#9;&#9;&#9;h-2.4c-2.5,0-4.5,2-4.5,4.5v9.2c0,2.5,2,4.5,4.5,4.5h19.8c2.5,0,4.5-2,4.5-4.5v-9.2c0-2.5-2-4.5-4.5-4.5h-2.4v-6.4&#10;&#9;&#9;&#9;&#9;&#9;c11.6-1.3,22.4-5.4,31.6-11.7l7.7,8.7l-2.1,1.9l4,4.5l11.4-10.1l-4-4.5l-2.1,1.9l-7.3-8.3c13.9-12.7,22.6-30.9,22.6-51.2&#10;&#9;&#9;&#9;&#9;&#9;c0-38.2-31-69.2-69.2-69.2s-69.2,31-69.2,69.2C460,346.1,468.7,364.4,482.6,377z M472.5,325.8c0-31.3,25.3-56.6,56.6-56.6&#10;&#9;&#9;&#9;&#9;&#9;s56.6,25.3,56.6,56.6s-25.3,56.6-56.6,56.6S472.5,357.1,472.5,325.8z" style="mask: url('#SVGID_9_'); fill: url('#SVGID_10_');"/>
			</g>
		</mask><linearGradient id="SVGID_11_" gradientUnits="userSpaceOnUse" x1="529.1485" y1="372.5351" x2="529.1485" y2="211.9328" style="clip-path: url('#SVGID_2_');">
			<stop offset="0" style="stop-color:#FFFFFF"/>
			<stop offset="1" style="stop-color:#000000"/>
		</linearGradient><defs style="clip-path: url('#SVGID_2_');">
			<filter id="Adobe_OpacityMaskFilter_6_" filterUnits="userSpaceOnUse" x="530" y="326.8" width="49.6" height="49.4">
				<feFlood style="flood-color:white;flood-opacity:1" result="back"/>
				<feBlend in="SourceGraphic" in2="back" mode="normal"/>
			</filter>
		</defs><mask maskUnits="userSpaceOnUse" x="530" y="326.8" width="49.6" height="49.4" id="SVGID_12_" style="clip-path: url('#SVGID_2_');">
			<g class="st14" style="filter: url('#Adobe_OpacityMaskFilter_6_');">
				<defs>
					<filter id="Adobe_OpacityMaskFilter_7_" filterUnits="userSpaceOnUse" x="530" y="326.8" width="49.6" height="49.4">
						<feFlood style="flood-color:white;flood-opacity:1" result="back"/>
						<feBlend in="SourceGraphic" in2="back" mode="normal"/>
					</filter>
				</defs>
				<mask maskUnits="userSpaceOnUse" x="530" y="326.8" width="49.6" height="49.4" id="SVGID_12_">
					<g class="st15" style="filter: url('#Adobe_OpacityMaskFilter_7_');">
					</g>
				</mask>
				<linearGradient id="SVGID_13_" gradientUnits="userSpaceOnUse" x1="554.736" y1="372.5352" x2="554.736" y2="211.9326">
					<stop offset="0" style="stop-color:#000000"/>
					<stop offset="1" style="stop-color:#FFFFFF"/>
				</linearGradient>
				<path class="st16" d="M530,376.2v-49.4h49.6C579,353.9,557.1,375.8,530,376.2z" style="mask: url('#SVGID_12_'); fill: url('#SVGID_13_');"/>
			</g>
		</mask><linearGradient id="SVGID_14_" gradientUnits="userSpaceOnUse" x1="554.736" y1="372.5352" x2="554.736" y2="211.9326" style="clip-path: url('#SVGID_2_');">
			<stop offset="0" style="stop-color:#FFFFFF"/>
			<stop offset="1" style="stop-color:#000000"/>
		</linearGradient><defs style="clip-path: url('#SVGID_2_');">
			<filter id="Adobe_OpacityMaskFilter_8_" filterUnits="userSpaceOnUse" x="1107.2" y="256.6" width="196.3" height="120.5">
				<feFlood style="flood-color:white;flood-opacity:1" result="back"/>
				<feBlend in="SourceGraphic" in2="back" mode="normal"/>
			</filter>
		</defs><mask maskUnits="userSpaceOnUse" x="1107.2" y="256.6" width="196.3" height="120.5" id="SVGID_15_" style="clip-path: url('#SVGID_2_');">
			<g class="st18" style="filter: url('#Adobe_OpacityMaskFilter_8_');">
				<defs>
					<filter id="Adobe_OpacityMaskFilter_9_" filterUnits="userSpaceOnUse" x="1107.2" y="256.6" width="196.3" height="120.5">
						<feFlood style="flood-color:white;flood-opacity:1" result="back"/>
						<feBlend in="SourceGraphic" in2="back" mode="normal"/>
					</filter>
				</defs>
				<mask maskUnits="userSpaceOnUse" x="1107.2" y="256.6" width="196.3" height="120.5" id="SVGID_15_">
					<g class="st19" style="filter: url('#Adobe_OpacityMaskFilter_9_');">
					</g>
				</mask>
				<linearGradient id="SVGID_16_" gradientUnits="userSpaceOnUse" x1="1205.3" y1="372.5352" x2="1205.3" y2="211.933">
					<stop offset="0" style="stop-color:#000000"/>
					<stop offset="1" style="stop-color:#FFFFFF"/>
				</linearGradient>
				<path class="st20" d="M1303.4,377v-11.6V256.7h-10.6v-0.1l-0.1,0.1h-0.8v0.8l-27.2,25.4h-123l-22.9-21.4v-4.8h-5.2l-0.1-0.1v0.1&#10;&#9;&#9;&#9;&#9;&#9;h-6.3V377h2.7h8.9h173.1H1303.4z M1118.7,365.5v-0.9l22.7-13h123.4l24.2,13.9H1118.7z M1263.8,348.9h-9.5v-7.7l9.5,0.1V348.9z&#10;&#9;&#9;&#9;&#9;&#9; M1263.8,338.5l-9.5-0.1v-8.5l9.5,0.1V338.5z M1263.8,327.3l-9.5-0.1v-8.5l9.5,0.1V327.3z M1263.8,316l-9.5-0.1v-8.5l9.5,0.1&#10;&#9;&#9;&#9;&#9;&#9;V316z M1251.6,338.4l-11.4-0.1v-8.5l11.4,0.1V338.4z M1251.6,327.2l-11.4-0.1v-8.5l11.4,0.1V327.2z M1142.6,317.9l10.5,0.1v8.5&#10;&#9;&#9;&#9;&#9;&#9;l-10.5-0.1V317.9z M1155.8,318l11.4,0.1v8.5l-11.4-0.1V318z M1169.9,318.1l11.4,0.1v8.5l-11.4-0.1V318.1z M1183.9,318.2&#10;&#9;&#9;&#9;&#9;&#9;l11.4,0.1v8.5l-11.4-0.1V318.2z M1198,318.3l11.4,0.1v8.5l-11.4-0.1V318.3z M1212.1,318.4l11.4,0.1v8.5l-11.4-0.1V318.4z&#10;&#9;&#9;&#9;&#9;&#9; M1226.1,318.5l11.4,0.1v8.5l-11.4-0.1V318.5z M1237.5,338.3l-11.4-0.1v-8.5l11.4,0.1V338.3z M1223.4,338.2l-11.4-0.1v-8.5&#10;&#9;&#9;&#9;&#9;&#9;l11.4,0.1V338.2z M1209.4,338.1l-11.4-0.1v-8.5l11.4,0.1V338.1z M1195.3,338l-11.4-0.1v-8.5l11.4,0.1V338z M1181.2,337.9&#10;&#9;&#9;&#9;&#9;&#9;l-11.4-0.1v-8.5l11.4,0.1V337.9z M1167.1,337.8l-11.4-0.1v-8.5l11.4,0.1V337.8z M1153.1,337.7l-10.5-0.1v-8.5l10.5,0.1V337.7z&#10;&#9;&#9;&#9;&#9;&#9; M1142.6,306.6l10.5,0.1v8.5l-10.5-0.1V306.6z M1155.8,306.7l11.4,0.1v8.5l-11.4-0.1V306.7z M1169.9,306.8l11.4,0.1v8.5&#10;&#9;&#9;&#9;&#9;&#9;l-11.4-0.1V306.8z M1183.9,306.9l11.4,0.1v8.5l-11.4-0.1V306.9z M1198,307l11.4,0.1v8.5l-11.4-0.1V307z M1212.1,307.1l11.4,0.1&#10;&#9;&#9;&#9;&#9;&#9;v8.5l-11.4-0.1V307.1z M1226.1,307.2l11.4,0.1v8.5l-11.4-0.1V307.2z M1240.2,307.3l11.4,0.1v8.5l-11.4-0.1V307.3z M1251.6,348.9&#10;&#9;&#9;&#9;&#9;&#9;h-11.4v-7.8l11.4,0.1V348.9z M1237.5,348.9h-11.4V341l11.4,0.1V348.9z M1223.4,348.9h-11.4v-8l11.4,0.1V348.9z M1209.4,348.9&#10;&#9;&#9;&#9;&#9;&#9;H1198v-8.1l11.4,0.1V348.9z M1195.3,348.9h-11.4v-8.2l11.4,0.1V348.9z M1181.2,348.9h-11.4v-8.3l11.4,0.1V348.9z M1167.1,348.9&#10;&#9;&#9;&#9;&#9;&#9;h-11.4v-8.4l11.4,0.1V348.9z M1153.1,348.9h-10.5v-8.5l10.5,0.1V348.9z M1142.6,295.4l10.5,0.1v8.5l-10.5-0.1V295.4z&#10;&#9;&#9;&#9;&#9;&#9; M1155.8,295.5l11.4,0.1v8.5l-11.4-0.1V295.5z M1169.9,295.6l11.4,0.1v8.5l-11.4-0.1V295.6z M1183.9,295.7l11.4,0.1v8.5&#10;&#9;&#9;&#9;&#9;&#9;l-11.4-0.1V295.7z M1198,295.8l11.4,0.1v8.5l-11.4-0.1V295.8z M1212.1,295.9l11.4,0.1v8.5l-11.4-0.1V295.9z M1226.1,295.9&#10;&#9;&#9;&#9;&#9;&#9;l11.4,0.1v8.5l-11.4-0.1V295.9z M1240.2,296l11.4,0.1v8.5l-11.4-0.1V296z M1254.3,296.1l9.5,0.1v8.5l-9.5-0.1V296.1z&#10;&#9;&#9;&#9;&#9;&#9; M1139.7,349.4l-21,12v-96.3l21,19.6V349.4z M1142.6,285.6h10.5v7.1l-10.5-0.1V285.6z M1155.8,285.6h11.4v7.2l-11.4-0.1V285.6z&#10;&#9;&#9;&#9;&#9;&#9; M1169.9,285.6h11.4v7.3l-11.4-0.1V285.6z M1183.9,285.6h11.4v7.4l-11.4-0.1V285.6z M1198,285.6h11.4v7.5L1198,293V285.6z&#10;&#9;&#9;&#9;&#9;&#9; M1212.1,285.6h11.4v7.6l-11.4-0.1V285.6z M1226.1,285.6h11.4v7.7l-11.4-0.1V285.6z M1240.2,285.6h11.4v7.8l-11.4-0.1V285.6z&#10;&#9;&#9;&#9;&#9;&#9; M1254.3,285.6h9.5v7.9l-9.5-0.1V285.6z M1290.1,363l-23.2-13.3v-65.2l23.2-21.6V363z" style="mask: url('#SVGID_15_'); fill: url('#SVGID_16_');"/>
			</g>
		</mask><linearGradient id="SVGID_17_" gradientUnits="userSpaceOnUse" x1="1205.3" y1="372.5352" x2="1205.3" y2="211.933" style="clip-path: url('#SVGID_2_');">
			<stop offset="0" style="stop-color:#FFFFFF"/>
			<stop offset="1" style="stop-color:#000000"/>
		</linearGradient><defs style="clip-path: url('#SVGID_2_');">
			<filter id="Adobe_OpacityMaskFilter_10_" filterUnits="userSpaceOnUse" x="776.1" y="256.7" width="182.2" height="150.9">
				<feFlood style="flood-color:white;flood-opacity:1" result="back"/>
				<feBlend in="SourceGraphic" in2="back" mode="normal"/>
			</filter>
		</defs><mask maskUnits="userSpaceOnUse" x="776.1" y="256.7" width="182.2" height="150.9" id="SVGID_18_" style="clip-path: url('#SVGID_2_');">
			<g class="st22" style="filter: url('#Adobe_OpacityMaskFilter_10_');">
				<defs>
					<filter id="Adobe_OpacityMaskFilter_11_" filterUnits="userSpaceOnUse" x="776.1" y="256.7" width="182.2" height="150.9">
						<feFlood style="flood-color:white;flood-opacity:1" result="back"/>
						<feBlend in="SourceGraphic" in2="back" mode="normal"/>
					</filter>
				</defs>
				<mask maskUnits="userSpaceOnUse" x="776.1" y="256.7" width="182.2" height="150.9" id="SVGID_18_">
					<g class="st23" style="filter: url('#Adobe_OpacityMaskFilter_11_');">
					</g>
				</mask>
				<linearGradient id="SVGID_19_" gradientUnits="userSpaceOnUse" x1="867.2242" y1="372.5352" x2="867.2242" y2="211.9328">
					<stop offset="0" style="stop-color:#000000"/>
					<stop offset="1" style="stop-color:#FFFFFF"/>
				</linearGradient>
				<path class="st24" d="M777,267.2l28.1,48.7c1.2,2,3.3,3.2,5.4,3.3l51,88.4l6.4-3.7l90.4-52.2l-41.6-72.1l-90.4,52.2l-9.2-15.9&#10;&#9;&#9;&#9;&#9;&#9;c1.5-2,1.8-4.9,0.5-7.2l-28.1-48.7c-1.8-3.1-5.8-4.2-8.9-2.4l-1.2,0.7C776.3,260.1,775.2,264.1,777,267.2z M833.1,335l36.7-21.2&#10;&#9;&#9;&#9;&#9;&#9;l15.4,26.6l-36.7,21.2L833.1,335z M949.9,349.4l-39.5,22.8l-17.1-29.5l39.5-22.8L949.9,349.4z" style="mask: url('#SVGID_18_'); fill: url('#SVGID_19_');"/>
			</g>
		</mask><linearGradient id="SVGID_20_" gradientUnits="userSpaceOnUse" x1="867.2242" y1="372.5352" x2="867.2242" y2="211.9328" style="clip-path: url('#SVGID_2_');">
			<stop offset="0" style="stop-color:#FFFFFF"/>
			<stop offset="1" style="stop-color:#000000"/>
		</linearGradient><defs style="clip-path: url('#SVGID_2_');">
			<filter id="Adobe_OpacityMaskFilter_12_" filterUnits="userSpaceOnUse" x="120.8" y="550.5" width="125" height="171.5">
				<feFlood style="flood-color:white;flood-opacity:1" result="back"/>
				<feBlend in="SourceGraphic" in2="back" mode="normal"/>
			</filter>
		</defs><mask maskUnits="userSpaceOnUse" x="120.8" y="550.5" width="125" height="171.5" id="SVGID_21_" style="clip-path: url('#SVGID_2_');">
			<g class="st26" style="filter: url('#Adobe_OpacityMaskFilter_12_');">
				<defs>
					<filter id="Adobe_OpacityMaskFilter_13_" filterUnits="userSpaceOnUse" x="120.8" y="550.5" width="125" height="171.5">
						<feFlood style="flood-color:white;flood-opacity:1" result="back"/>
						<feBlend in="SourceGraphic" in2="back" mode="normal"/>
					</filter>
				</defs>
				<mask maskUnits="userSpaceOnUse" x="120.8" y="550.5" width="125" height="171.5" id="SVGID_21_">
					<g class="st27" style="filter: url('#Adobe_OpacityMaskFilter_13_');">
					</g>
				</mask>
				<linearGradient id="SVGID_22_" gradientUnits="userSpaceOnUse" x1="183.308" y1="666.4316" x2="183.308" y2="482.4724">
					<stop offset="0" style="stop-color:#000000"/>
					<stop offset="1" style="stop-color:#FFFFFF"/>
				</linearGradient>
				<path class="st28" d="M237.7,687.5c-7.6-7.6-13.2-16.8-17.2-25.7c-7.4-16.2-9-34.4-5-51.8c2.9-12.7,3.3-31.1-11.9-46.3&#10;&#9;&#9;&#9;&#9;&#9;c-18.1-18.1-43.7-16.8-63-1.3l-8-8c-2.7-2.7-7-2.7-9.7,0c-2.7,2.7-2.7,7,0,9.7l8.1,8.1c-15,19.7-13.3,48.1,4.7,66.1l83.8,83.8&#10;&#9;&#9;&#9;&#9;&#9;l26.4-26.4L237.7,687.5z M188,617.8c-10.6,10.6-27.8,10.6-38.4,0c-10.6-10.6-10.6-27.8,0-38.4c10.6-10.6,27.8-10.6,38.4,0&#10;&#9;&#9;&#9;&#9;&#9;C198.6,590,198.6,607.2,188,617.8z" style="mask: url('#SVGID_21_'); fill: url('#SVGID_22_');"/>
			</g>
		</mask><linearGradient id="SVGID_23_" gradientUnits="userSpaceOnUse" x1="183.308" y1="666.4316" x2="183.308" y2="482.4724" style="clip-path: url('#SVGID_2_');">
			<stop offset="0" style="stop-color:#FFFFFF"/>
			<stop offset="1" style="stop-color:#000000"/>
		</linearGradient><defs style="clip-path: url('#SVGID_2_');">
			<filter id="Adobe_OpacityMaskFilter_14_" filterUnits="userSpaceOnUse" x="441.8" y="550.5" width="177.7" height="170.5">
				<feFlood style="flood-color:white;flood-opacity:1" result="back"/>
				<feBlend in="SourceGraphic" in2="back" mode="normal"/>
			</filter>
		</defs><mask maskUnits="userSpaceOnUse" x="441.8" y="550.5" width="177.7" height="170.5" id="SVGID_24_" style="clip-path: url('#SVGID_2_');">
			<g class="st30" style="filter: url('#Adobe_OpacityMaskFilter_14_');">
				<defs>
					<filter id="Adobe_OpacityMaskFilter_15_" filterUnits="userSpaceOnUse" x="441.8" y="550.5" width="177.7" height="170.5">
						<feFlood style="flood-color:white;flood-opacity:1" result="back"/>
						<feBlend in="SourceGraphic" in2="back" mode="normal"/>
					</filter>
				</defs>
				<mask maskUnits="userSpaceOnUse" x="441.8" y="550.5" width="177.7" height="170.5" id="SVGID_24_">
					<g class="st31" style="filter: url('#Adobe_OpacityMaskFilter_15_');">
					</g>
				</mask>
				<linearGradient id="SVGID_25_" gradientUnits="userSpaceOnUse" x1="530.6859" y1="666.4316" x2="530.6859" y2="482.4721">
					<stop offset="0" style="stop-color:#000000"/>
					<stop offset="1" style="stop-color:#FFFFFF"/>
				</linearGradient>
				<path class="st32" d="M441.8,553.5l38.1,57l12.3,18.4v23.8V721h6v-5.3c16.5-8.1,32.9,12.7,49.4,1.5c0-11.6,0-23.3,0-34.9&#10;&#9;&#9;&#9;&#9;&#9;c-16.5,11.3-32.9-9.6-49.4-1.5v-28.4v-23.5h21.6h99.7C619.6,628.9,578.5,532.5,441.8,553.5z M484.7,608.4l-2.6-3.8&#10;&#9;&#9;&#9;&#9;&#9;c3.6-1.4,7.6-2.1,11.7-2.1c14.5,0,26.7,9.1,29.8,21.4h-4.7c-3-9.7-13.1-16.9-25.1-16.9C490.6,606.9,487.5,607.4,484.7,608.4z" style="mask: url('#SVGID_24_'); fill: url('#SVGID_25_');"/>
			</g>
		</mask><linearGradient id="SVGID_26_" gradientUnits="userSpaceOnUse" x1="530.6859" y1="666.4316" x2="530.6859" y2="482.4721" style="clip-path: url('#SVGID_2_');">
			<stop offset="0" style="stop-color:#FFFFFF"/>
			<stop offset="1" style="stop-color:#000000"/>
		</linearGradient><defs style="clip-path: url('#SVGID_2_');">
			<filter id="Adobe_OpacityMaskFilter_16_" filterUnits="userSpaceOnUse" x="823.5" y="550.5" width="99.5" height="172.4">
				<feFlood style="flood-color:white;flood-opacity:1" result="back"/>
				<feBlend in="SourceGraphic" in2="back" mode="normal"/>
			</filter>
		</defs><mask maskUnits="userSpaceOnUse" x="823.5" y="550.5" width="99.5" height="172.4" id="SVGID_27_" style="clip-path: url('#SVGID_2_');">
			<g class="st34" style="filter: url('#Adobe_OpacityMaskFilter_16_');">
				<defs>
					<filter id="Adobe_OpacityMaskFilter_17_" filterUnits="userSpaceOnUse" x="823.5" y="550.5" width="99.5" height="172.4">
						<feFlood style="flood-color:white;flood-opacity:1" result="back"/>
						<feBlend in="SourceGraphic" in2="back" mode="normal"/>
					</filter>
				</defs>
				<mask maskUnits="userSpaceOnUse" x="823.5" y="550.5" width="99.5" height="172.4" id="SVGID_27_">
					<g class="st35" style="filter: url('#Adobe_OpacityMaskFilter_17_');">
					</g>
				</mask>
				<linearGradient id="SVGID_28_" gradientUnits="userSpaceOnUse" x1="873.2588" y1="666.4316" x2="873.2588" y2="482.4727">
					<stop offset="0" style="stop-color:#000000"/>
					<stop offset="1" style="stop-color:#FFFFFF"/>
				</linearGradient>
				<path class="st36" d="M890.9,575.8c-0.2-3.6-0.1-17-0.1-22c0-0.9-0.3-1.7-1-2.3c-0.6-0.6-1.4-0.9-2.3-0.9c0,0-0.1,0-0.1,0&#10;&#9;&#9;&#9;&#9;&#9;l-47.7,1.2c-1.8,0-3.1,1.5-3.1,3.2v23.5c-0.1,1-0.5,6.1-0.2,12.2c0.5,9.3,2.4,16.2,5.7,20.4c1.4,1.8,2.8,6.2,4.2,11.7h-22.9&#10;&#9;&#9;&#9;&#9;&#9;v100.2h78.2V676c0.8-0.2,1.4-0.8,1.8-1.5c4.7-8.5,19.9-36.7,19.6-44.1c-0.2-4.3-6.1-13.7-18.7-32.8&#10;&#9;&#9;&#9;&#9;&#9;C899,589.4,891.6,578.2,890.9,575.8z M899,601.2c6.5,9.8,17.3,26.3,17.6,29.6c0.1,2.9-5.7,15.7-12.6,29.1&#10;&#9;&#9;&#9;&#9;&#9;c0.1-8.1,0.1-17.6-0.1-20.5c-0.1-1.5-0.8-2.9-2.2-4.5c-2-2.2-5.3-4.4-10.3-7.1c-5-2.6-9.8-4.7-10.7-5c-0.1,0-0.1-0.1-0.1-0.1&#10;&#9;&#9;&#9;&#9;&#9;c-0.8-0.3-1.7-0.3-2.5,0.1c-0.1,0-0.2,0.1-0.3,0.1c-0.9,0.5-1.4,1.3-1.6,2.3l-4.4,27.6c0,0.2,0,0.3,0,0.5c0,1.8-0.7,3.6-2,4.9&#10;&#9;&#9;&#9;&#9;&#9;c-1.3,1.3-3,2-4.9,2c-3.5-0.1-6.3-2.7-6.7-6.2c-0.5-5.6-1.8-15.3-3.6-24.4c-0.5-2.5-1-4.8-1.4-6.8c-2.7-11.7-4.9-14.6-5.7-15.6&#10;&#9;&#9;&#9;&#9;&#9;c-5-6.6-4.7-22.6-4.2-28.3c0-0.1,0-0.2,0-0.3v-20.5l41.2-1c-0.1,6.1-0.1,16.2,0.1,19.3C884.7,579.3,888.6,585.5,899,601.2z" style="mask: url('#SVGID_27_'); fill: url('#SVGID_28_');"/>
			</g>
		</mask><linearGradient id="SVGID_29_" gradientUnits="userSpaceOnUse" x1="873.2588" y1="666.4316" x2="873.2588" y2="482.4727" style="clip-path: url('#SVGID_2_');">
			<stop offset="0" style="stop-color:#FFFFFF"/>
			<stop offset="1" style="stop-color:#000000"/>
		</linearGradient><defs style="clip-path: url('#SVGID_2_');">
			<filter id="Adobe_OpacityMaskFilter_18_" filterUnits="userSpaceOnUse" x="1120.8" y="550.5" width="178.7" height="143.7">
				<feFlood style="flood-color:white;flood-opacity:1" result="back"/>
				<feBlend in="SourceGraphic" in2="back" mode="normal"/>
			</filter>
		</defs><mask maskUnits="userSpaceOnUse" x="1120.8" y="550.5" width="178.7" height="143.7" id="SVGID_30_" style="clip-path: url('#SVGID_2_');">
			<g class="st38" style="filter: url('#Adobe_OpacityMaskFilter_18_');">
				<defs>
					<filter id="Adobe_OpacityMaskFilter_19_" filterUnits="userSpaceOnUse" x="1120.8" y="550.5" width="178.7" height="143.7">
						<feFlood style="flood-color:white;flood-opacity:1" result="back"/>
						<feBlend in="SourceGraphic" in2="back" mode="normal"/>
					</filter>
				</defs>
				<mask maskUnits="userSpaceOnUse" x="1120.8" y="550.5" width="178.7" height="143.7" id="SVGID_30_">
					<g class="st39" style="filter: url('#Adobe_OpacityMaskFilter_19_');">
					</g>
				</mask>
				<linearGradient id="SVGID_31_" gradientUnits="userSpaceOnUse" x1="1210.1798" y1="666.4315" x2="1210.1798" y2="482.4723">
					<stop offset="0" style="stop-color:#000000"/>
					<stop offset="1" style="stop-color:#FFFFFF"/>
				</linearGradient>
				<path class="st40" d="M1299.5,678.5c-0.4-3.4-4.1-34-26-51.3c-9.6-7.6-21.3-11.4-34.7-11.4c-0.7,0-1.5,0-2.3,0&#10;&#9;&#9;&#9;&#9;&#9;c-5.1-4.3-10.8-7.8-17.3-10v-21.7h20.4l8.5-8.8v-24.8h-76.7v24.8l8.5,8.8h18.5V606c-6.2,2.3-11.8,5.6-16.7,9.8&#10;&#9;&#9;&#9;&#9;&#9;c-0.1,0-0.1,0-0.2,0c-13.5,0-25.1,3.8-34.7,11.4c-21.9,17.3-25.6,47.8-26,51.3c-0.2,2.4,0.6,4.5,2.4,5.8c2.2,1.7,7,3.6,22.8-0.4&#10;&#9;&#9;&#9;&#9;&#9;c0.1,0,0.2,0,0.3-0.1c-1.4,6.3-2,10.3-2,10.3h63.3h3h63.3c0,0-0.6-4.2-2.1-10.9c0.8,0.2,1.7,0.4,2.5,0.7&#10;&#9;&#9;&#9;&#9;&#9;c15.8,3.9,20.6,2.1,22.8,0.4C1298.9,683,1299.7,680.9,1299.5,678.5z M1175.1,622.2c-14.8,16.3-23,39.4-27.1,55&#10;&#9;&#9;&#9;&#9;&#9;c-1.4,0.4-2.9,0.8-4.4,1.1c-14.5,3.5-16.7,1.2-16.7,1.1c0,0,0-0.1,0-0.4c0.3-3.2,3.8-31.4,23.7-47.1&#10;&#9;&#9;&#9;&#9;&#9;C1157.5,626.5,1165.7,623.2,1175.1,622.2z M1234.4,652c0,14.3-11.6,25.9-25.9,25.9c-14.3,0-25.9-11.6-25.9-25.9&#10;&#9;&#9;&#9;&#9;&#9;c0-10.7,6.5-19.9,15.8-23.8c3.1-1.3,6.5-2,10.1-2c3.8,0,7.5,0.8,10.7,2.3C1228.2,632.5,1234.4,641.5,1234.4,652z M1293.5,679.5&#10;&#9;&#9;&#9;&#9;&#9;c0,0-2.1,2.3-16.7-1.2c-2.3-0.6-4.6-1.2-6.7-1.8c-4.2-15.7-12.4-38.5-27.1-54.6c10.3,0.7,19.3,4,26.9,10&#10;&#9;&#9;&#9;&#9;&#9;c19.9,15.7,23.4,44,23.7,47.1C1293.5,679.4,1293.5,679.5,1293.5,679.5z" style="mask: url('#SVGID_30_'); fill: url('#SVGID_31_');"/>
			</g>
		</mask><linearGradient id="SVGID_32_" gradientUnits="userSpaceOnUse" x1="1210.1798" y1="666.4315" x2="1210.1798" y2="482.4723" style="clip-path: url('#SVGID_2_');">
			<stop offset="0" style="stop-color:#FFFFFF"/>
			<stop offset="1" style="stop-color:#000000"/>
		</linearGradient><defs style="clip-path: url('#SVGID_2_');">
			<filter id="Adobe_OpacityMaskFilter_20_" filterUnits="userSpaceOnUse" x="1198.9" y="635" width="14.6" height="33.4">
				<feFlood style="flood-color:white;flood-opacity:1" result="back"/>
				<feBlend in="SourceGraphic" in2="back" mode="normal"/>
			</filter>
		</defs><mask maskUnits="userSpaceOnUse" x="1198.9" y="635" width="14.6" height="33.4" id="SVGID_33_" style="clip-path: url('#SVGID_2_');">
			<g class="st42" style="filter: url('#Adobe_OpacityMaskFilter_20_');">
				<defs>
					<filter id="Adobe_OpacityMaskFilter_21_" filterUnits="userSpaceOnUse" x="1198.9" y="635" width="14.6" height="33.4">
						<feFlood style="flood-color:white;flood-opacity:1" result="back"/>
						<feBlend in="SourceGraphic" in2="back" mode="normal"/>
					</filter>
				</defs>
				<mask maskUnits="userSpaceOnUse" x="1198.9" y="635" width="14.6" height="33.4" id="SVGID_33_">
					<g class="st43" style="filter: url('#Adobe_OpacityMaskFilter_21_');">
					</g>
				</mask>
				<linearGradient id="SVGID_34_" gradientUnits="userSpaceOnUse" x1="1206.144" y1="666.4315" x2="1206.144" y2="482.4724">
					<stop offset="0" style="stop-color:#000000"/>
					<stop offset="1" style="stop-color:#FFFFFF"/>
				</linearGradient>
				<path class="st44" d="M1207.7,667c-0.3-1-0.7-1.8-1.3-2.4c-0.8-0.9-1.9-1.5-3.2-1.8c-0.8-0.2-2.3-0.3-4.3-0.4V658h7.9v-23h6.7&#10;&#9;&#9;&#9;&#9;&#9;v33.4h-5.5C1208,668.1,1207.9,667.6,1207.7,667z" style="mask: url('#SVGID_33_'); fill: url('#SVGID_34_');"/>
			</g>
		</mask><linearGradient id="SVGID_35_" gradientUnits="userSpaceOnUse" x1="1206.144" y1="666.4315" x2="1206.144" y2="482.4724" style="clip-path: url('#SVGID_2_');">
			<stop offset="0" style="stop-color:#FFFFFF"/>
			<stop offset="1" style="stop-color:#000000"/>
		</linearGradient><defs style="clip-path: url('#SVGID_2_');">
				<filter id="Adobe_OpacityMaskFilter_22_" filterUnits="userSpaceOnUse" x="146.3" y="928" width="90.7" height="113.9">
					<feFlood style="flood-color:white;flood-opacity:1" result="back"/>
					<feBlend in="SourceGraphic" in2="back" mode="normal"/>
				</filter>
			</defs><mask maskUnits="userSpaceOnUse" x="146.3" y="928" width="90.7" height="113.9" id="SVGID_36_" style="clip-path: url('#SVGID_2_');">
				<g class="st46" style="filter: url('#Adobe_OpacityMaskFilter_22_');">
					<defs>
						<filter id="Adobe_OpacityMaskFilter_23_" filterUnits="userSpaceOnUse" x="146.3" y="928" width="90.7" height="113.9">
							<feFlood style="flood-color:white;flood-opacity:1" result="back"/>
							<feBlend in="SourceGraphic" in2="back" mode="normal"/>
						</filter>
					</defs>
					<mask maskUnits="userSpaceOnUse" x="146.3" y="928" width="90.7" height="113.9" id="SVGID_36_">
						<g class="st47" style="filter: url('#Adobe_OpacityMaskFilter_23_');">
						</g>
					</mask>
					<linearGradient id="SVGID_37_" gradientUnits="userSpaceOnUse" x1="191.7011" y1="971.7408" x2="191.7011" y2="787.8956">
						<stop offset="0" style="stop-color:#000000"/>
						<stop offset="1" style="stop-color:#FFFFFF"/>
					</linearGradient>
					<path class="st48" d="M235.4,980.3c0.4-1,0.6-2,0.6-3.1c0-3.9-2.8-7.2-6.5-7.9c-1.6-8.1-5.1-16.6-10-23.7&#10;&#9;&#9;&#9;&#9;&#9;&#9;c-7.8-11.4-17.6-17.6-27.6-17.6c-10,0-19.8,6.3-27.6,17.6c-4.9,7.1-8.4,15.6-10,23.7c-3.7,0.7-6.5,4-6.5,7.9&#10;&#9;&#9;&#9;&#9;&#9;&#9;c0,0.8,0.1,1.6,0.4,2.4c-1.4,6.5-5.1,28,4.7,37.8c11.4,11.5,9.7,23,38.4,24.4v0c0.1,0,0.3,0,0.4,0c0.1,0,0.3,0,0.4,0v0&#10;&#9;&#9;&#9;&#9;&#9;&#9;c28.7-1.3,27-12.8,38.4-24.4C240,1008,236.8,987.5,235.4,980.3z M191.9,934.4c7.7,0,15.9,5.4,22.3,14.8&#10;&#9;&#9;&#9;&#9;&#9;&#9;c3.6,5.3,6.4,11.4,8,17.4c0.4,1.3,0.7,2.7,0.9,4c0.5,2.6,0.8,5.2,0.8,7.7l0,2l0,4.1l0,7.3c-1.2,2.6-2.5,5.7-3.9,9.2&#10;&#9;&#9;&#9;&#9;&#9;&#9;c-1,2.5-3.7,4-6.3,3.4l-7.1-1.6c-10.1-2.3-20.8-2.4-30.9-0.2l-6.2,1.3c-2.6,0.5-5.2-0.8-6.2-3.3l-3.6-8.7l0-7.4l0-3.7l0-2.4&#10;&#9;&#9;&#9;&#9;&#9;&#9;c0-2.4,0.3-5,0.8-7.6c0.3-1.5,0.7-3,1.1-4.5c1.7-5.8,4.4-11.7,7.9-16.9C176,939.8,184.2,934.4,191.9,934.4z" style="mask: url('#SVGID_36_'); fill: url('#SVGID_37_');"/>
				</g>
			</mask><linearGradient id="SVGID_38_" gradientUnits="userSpaceOnUse" x1="191.7011" y1="971.7408" x2="191.7011" y2="787.8956" style="clip-path: url('#SVGID_2_');">
				<stop offset="0" style="stop-color:#FFFFFF"/>
				<stop offset="1" style="stop-color:#000000"/>
			</linearGradient><defs style="clip-path: url('#SVGID_2_');">
				<filter id="Adobe_OpacityMaskFilter_24_" filterUnits="userSpaceOnUse" x="96.6" y="857.2" width="189" height="74.4">
					<feFlood style="flood-color:white;flood-opacity:1" result="back"/>
					<feBlend in="SourceGraphic" in2="back" mode="normal"/>
				</filter>
			</defs><mask maskUnits="userSpaceOnUse" x="96.6" y="857.2" width="189" height="74.4" id="SVGID_39_" style="clip-path: url('#SVGID_2_');">
				<g class="st50" style="filter: url('#Adobe_OpacityMaskFilter_24_');">
					<defs>
						<filter id="Adobe_OpacityMaskFilter_25_" filterUnits="userSpaceOnUse" x="96.6" y="857.2" width="189" height="74.4">
							<feFlood style="flood-color:white;flood-opacity:1" result="back"/>
							<feBlend in="SourceGraphic" in2="back" mode="normal"/>
						</filter>
					</defs>
					<mask maskUnits="userSpaceOnUse" x="96.6" y="857.2" width="189" height="74.4" id="SVGID_39_">
						<g class="st51" style="filter: url('#Adobe_OpacityMaskFilter_25_');">
						</g>
					</mask>
					<linearGradient id="SVGID_40_" gradientUnits="userSpaceOnUse" x1="191.0728" y1="971.7408" x2="191.0728" y2="787.895">
						<stop offset="0" style="stop-color:#000000"/>
						<stop offset="1" style="stop-color:#FFFFFF"/>
					</linearGradient>
					<path class="st52" d="M274.5,903.8l11.1-46.6h-189l11.1,46.6l0.5,0.6c8.1,9,30,19.5,54.5,26.2l3.3,0.9l0.7-3.3&#10;&#9;&#9;&#9;&#9;&#9;&#9;c2.4-11.4,12.5-19.6,24.1-19.6c11.7,0,21.9,8.3,24.2,19.8l0.7,3.3l3.3-0.9c24.7-6.7,46.8-17.3,55-26.3L274.5,903.8z&#10;&#9;&#9;&#9;&#9;&#9;&#9; M277.5,863.6l-8.8,37.1c-1.7,1.8-4,3.6-6.7,5.3v-42.4H277.5z M113.5,900.7l-8.8-37.1h13.5v41&#10;&#9;&#9;&#9;&#9;&#9;&#9;C116.3,903.3,114.7,902,113.5,900.7z M131.3,863.6h13v54.2c-4.5-1.7-8.9-3.6-13-5.6V863.6z M157.4,863.6h13v46.2&#10;&#9;&#9;&#9;&#9;&#9;&#9;c-4.1,3.6-7.4,8.3-9.1,13.7c-1.3-0.4-2.6-0.8-3.9-1.2V863.6z M183.6,863.6h13v39.1c-1.9-0.4-3.8-0.6-5.7-0.6&#10;&#9;&#9;&#9;&#9;&#9;&#9;c-2.5,0-4.9,0.3-7.2,0.9V863.6z M209.7,863.6h13V923c-0.8,0.2-1.5,0.5-2.3,0.7c-2-6.1-5.8-11.3-10.7-15.1V863.6z M235.9,863.6&#10;&#9;&#9;&#9;&#9;&#9;&#9;h13v49.6c-4.1,1.9-8.5,3.7-13,5.4V863.6z" style="mask: url('#SVGID_39_'); fill: url('#SVGID_40_');"/>
				</g>
			</mask><linearGradient id="SVGID_41_" gradientUnits="userSpaceOnUse" x1="191.0728" y1="971.7408" x2="191.0728" y2="787.895" style="clip-path: url('#SVGID_2_');">
				<stop offset="0" style="stop-color:#FFFFFF"/>
				<stop offset="1" style="stop-color:#000000"/>
			</linearGradient><defs style="clip-path: url('#SVGID_2_');">
				<filter id="Adobe_OpacityMaskFilter_26_" filterUnits="userSpaceOnUse" x="483.5" y="930.4" width="89.1" height="111.8">
					<feFlood style="flood-color:white;flood-opacity:1" result="back"/>
					<feBlend in="SourceGraphic" in2="back" mode="normal"/>
				</filter>
			</defs><mask maskUnits="userSpaceOnUse" x="483.5" y="930.4" width="89.1" height="111.8" id="SVGID_42_" style="clip-path: url('#SVGID_2_');">
				<g class="st54" style="filter: url('#Adobe_OpacityMaskFilter_26_');">
					<defs>
						<filter id="Adobe_OpacityMaskFilter_27_" filterUnits="userSpaceOnUse" x="483.5" y="930.4" width="89.1" height="111.8">
							<feFlood style="flood-color:white;flood-opacity:1" result="back"/>
							<feBlend in="SourceGraphic" in2="back" mode="normal"/>
						</filter>
					</defs>
					<mask maskUnits="userSpaceOnUse" x="483.5" y="930.4" width="89.1" height="111.8" id="SVGID_42_">
						<g class="st55" style="filter: url('#Adobe_OpacityMaskFilter_27_');">
						</g>
					</mask>
					<linearGradient id="SVGID_43_" gradientUnits="userSpaceOnUse" x1="528.0274" y1="971.7407" x2="528.0274" y2="787.8955">
						<stop offset="0" style="stop-color:#000000"/>
						<stop offset="1" style="stop-color:#FFFFFF"/>
					</linearGradient>
					<path class="st56" d="M484.4,977.9c0,1.4,0.3,2.7,0.9,3.8c-1,3.6-1.4,9.8-1.4,9.8l0,0c0,0-7.4,49.8,42,50.7&#10;&#9;&#9;&#9;&#9;&#9;&#9;c17,0.3,46.4-3.7,44.5-49.6l0,0c0.3-0.7-0.3-4.3-0.9-7.4c1.9-1.5,3.1-3.7,3.1-6.3c0.1-4.4-3.3-7.9-7.7-8.2&#10;&#9;&#9;&#9;&#9;&#9;&#9;c-1.5-7.8-4.8-16.1-9.4-23c-7.3-10.9-16.9-17.3-26.4-17.4c-9.5-0.1-19.2,6-26.8,16.8c-4.8,6.8-8.3,15-10,22.7&#10;&#9;&#9;&#9;&#9;&#9;&#9;C488,970,484.5,973.5,484.4,977.9z M559.9,972.1c0.5,2.7,0.7,5.2,0.7,7.7l0,0.8l0,1.2l-0.1,4.1l-0.1,7.3l-9.1,1.6&#10;&#9;&#9;&#9;&#9;&#9;&#9;c-7.7,1.4-15.3,3.6-22.5,6.5l-10.2,4.2c-13.3-10.7-22.4-13-22.4-13l0.1-7.4l0-3.7l0-1.6l0-0.8c0-2.4,0.3-5,0.9-7.6&#10;&#9;&#9;&#9;&#9;&#9;&#9;c1.5-7.2,4.8-14.9,9.3-21.3c6.6-9.3,14.8-14.7,22.5-14.6c7.7,0.1,15.8,5.6,22.1,15.1C555.5,957.2,558.6,964.9,559.9,972.1z" style="mask: url('#SVGID_42_'); fill: url('#SVGID_43_');"/>
				</g>
			</mask><linearGradient id="SVGID_44_" gradientUnits="userSpaceOnUse" x1="528.0274" y1="971.7407" x2="528.0274" y2="787.8955" style="clip-path: url('#SVGID_2_');">
				<stop offset="0" style="stop-color:#FFFFFF"/>
				<stop offset="1" style="stop-color:#000000"/>
			</linearGradient><defs style="clip-path: url('#SVGID_2_');">
				<filter id="Adobe_OpacityMaskFilter_28_" filterUnits="userSpaceOnUse" x="434.6" y="857.2" width="189" height="75.8">
					<feFlood style="flood-color:white;flood-opacity:1" result="back"/>
					<feBlend in="SourceGraphic" in2="back" mode="normal"/>
				</filter>
			</defs><mask maskUnits="userSpaceOnUse" x="434.6" y="857.2" width="189" height="75.8" id="SVGID_45_" style="clip-path: url('#SVGID_2_');">
				<g class="st58" style="filter: url('#Adobe_OpacityMaskFilter_28_');">
					<defs>
						<filter id="Adobe_OpacityMaskFilter_29_" filterUnits="userSpaceOnUse" x="434.6" y="857.2" width="189" height="75.8">
							<feFlood style="flood-color:white;flood-opacity:1" result="back"/>
							<feBlend in="SourceGraphic" in2="back" mode="normal"/>
						</filter>
					</defs>
					<mask maskUnits="userSpaceOnUse" x="434.6" y="857.2" width="189" height="75.8" id="SVGID_45_">
						<g class="st59" style="filter: url('#Adobe_OpacityMaskFilter_29_');">
						</g>
					</mask>
					<linearGradient id="SVGID_46_" gradientUnits="userSpaceOnUse" x1="529.1484" y1="971.7407" x2="529.1484" y2="787.8957">
						<stop offset="0" style="stop-color:#000000"/>
						<stop offset="1" style="stop-color:#FFFFFF"/>
					</linearGradient>
					<path class="st60" d="M612,906l11.6-46.4l-189-2.3l10.5,46.7l0.5,0.6c8,9.1,29.8,19.9,54.2,26.9l3.3,0.9l0.7-3.3&#10;&#9;&#9;&#9;&#9;&#9;&#9;c2.5-11.4,12.7-19.5,24.4-19.3c11.7,0.1,21.8,8.6,23.9,20.1l0.6,3.4l3.3-0.9c24.8-6.4,47-16.7,55.3-25.6L612,906z M615.5,865.8&#10;&#9;&#9;&#9;&#9;&#9;&#9;l-9.3,37c-8.6,8.6-30.4,17.4-48.6,22.4c-3.9-12.7-15.7-21.8-29.3-21.9c-13.5-0.2-25.5,8.5-29.8,21.1&#10;&#9;&#9;&#9;&#9;&#9;&#9;c-17.9-5.4-39.3-14.7-47.6-23.4l-8.4-37.2L615.5,865.8z" style="mask: url('#SVGID_45_'); fill: url('#SVGID_46_');"/>
				</g>
			</mask><linearGradient id="SVGID_47_" gradientUnits="userSpaceOnUse" x1="529.1484" y1="971.7407" x2="529.1484" y2="787.8957" style="clip-path: url('#SVGID_2_');">
				<stop offset="0" style="stop-color:#FFFFFF"/>
				<stop offset="1" style="stop-color:#000000"/>
			</linearGradient><defs style="clip-path: url('#SVGID_2_');">
				<filter id="Adobe_OpacityMaskFilter_30_" filterUnits="userSpaceOnUse" x="509.1" y="868.6" width="10.9" height="24.5">
					<feFlood style="flood-color:white;flood-opacity:1" result="back"/>
					<feBlend in="SourceGraphic" in2="back" mode="normal"/>
				</filter>
			</defs><mask maskUnits="userSpaceOnUse" x="509.1" y="868.6" width="10.9" height="24.5" id="SVGID_48_" style="clip-path: url('#SVGID_2_');">
				<g class="st62" style="filter: url('#Adobe_OpacityMaskFilter_30_');">
					<defs>
						<filter id="Adobe_OpacityMaskFilter_31_" filterUnits="userSpaceOnUse" x="509.1" y="868.6" width="10.9" height="24.5">
							<feFlood style="flood-color:white;flood-opacity:1" result="back"/>
							<feBlend in="SourceGraphic" in2="back" mode="normal"/>
						</filter>
					</defs>
					<mask maskUnits="userSpaceOnUse" x="509.1" y="868.6" width="10.9" height="24.5" id="SVGID_48_">
						<g class="st63" style="filter: url('#Adobe_OpacityMaskFilter_31_');">
						</g>
					</mask>
					<linearGradient id="SVGID_49_" gradientUnits="userSpaceOnUse" x1="514.5823" y1="971.7406" x2="514.5823" y2="787.8956">
						<stop offset="0" style="stop-color:#000000"/>
						<stop offset="1" style="stop-color:#FFFFFF"/>
					</linearGradient>
					<path class="st64" d="M515.7,893c0-0.2-0.1-0.5-0.2-1c-0.2-0.7-0.5-1.3-0.9-1.8c-0.6-0.6-1.4-1.1-2.3-1.3&#10;&#9;&#9;&#9;&#9;&#9;&#9;c-0.6-0.1-1.7-0.3-3.2-0.3l0-3.3l5.7,0.1l0.2-16.8l4.9,0.1l-0.3,24.4L515.7,893z" style="mask: url('#SVGID_48_'); fill: url('#SVGID_49_');"/>
				</g>
			</mask><linearGradient id="SVGID_50_" gradientUnits="userSpaceOnUse" x1="514.5823" y1="971.7406" x2="514.5823" y2="787.8956" style="clip-path: url('#SVGID_2_');">
				<stop offset="0" style="stop-color:#FFFFFF"/>
				<stop offset="1" style="stop-color:#000000"/>
			</linearGradient><defs style="clip-path: url('#SVGID_2_');">
				<filter id="Adobe_OpacityMaskFilter_32_" filterUnits="userSpaceOnUse" x="527.1" y="868.2" width="16.8" height="25.2">
					<feFlood style="flood-color:white;flood-opacity:1" result="back"/>
					<feBlend in="SourceGraphic" in2="back" mode="normal"/>
				</filter>
			</defs><mask maskUnits="userSpaceOnUse" x="527.1" y="868.2" width="16.8" height="25.2" id="SVGID_51_" style="clip-path: url('#SVGID_2_');">
				<g class="st66" style="filter: url('#Adobe_OpacityMaskFilter_32_');">
					<defs>
						<filter id="Adobe_OpacityMaskFilter_33_" filterUnits="userSpaceOnUse" x="527.1" y="868.2" width="16.8" height="25.2">
							<feFlood style="flood-color:white;flood-opacity:1" result="back"/>
							<feBlend in="SourceGraphic" in2="back" mode="normal"/>
						</filter>
					</defs>
					<mask maskUnits="userSpaceOnUse" x="527.1" y="868.2" width="16.8" height="25.2" id="SVGID_51_">
						<g class="st67" style="filter: url('#Adobe_OpacityMaskFilter_33_');">
						</g>
					</mask>
					<linearGradient id="SVGID_52_" gradientUnits="userSpaceOnUse" x1="535.514" y1="971.7406" x2="535.514" y2="787.8955">
						<stop offset="0" style="stop-color:#000000"/>
						<stop offset="1" style="stop-color:#FFFFFF"/>
					</linearGradient>
					<path class="st68" d="M541.9,890.2c1.3-2.2,1.9-5.3,2-9.3c0-4-0.5-7.1-1.8-9.3c-1.2-2.2-3.4-3.3-6.5-3.3c-3.1,0-5.3,1-6.6,3.2&#10;&#9;&#9;&#9;&#9;&#9;&#9;c-1.3,2.2-1.9,5.3-2,9.3c0,4,0.5,7.1,1.8,9.4c1.2,2.2,3.4,3.3,6.5,3.4C538.5,893.5,540.7,892.4,541.9,890.2z M539,880.9&#10;&#9;&#9;&#9;&#9;&#9;&#9;c0,2.9-0.3,5.1-0.7,6.5c-0.5,1.4-1.4,2.1-2.8,2.1c-1.4,0-2.4-0.7-2.8-2.2s-0.6-3.6-0.6-6.5c0-2.8,0.3-5,0.8-6.4&#10;&#9;&#9;&#9;&#9;&#9;&#9;c0.5-1.5,1.4-2.2,2.9-2.2c1.4,0,2.4,0.8,2.8,2.3C538.8,875.9,539,878.1,539,880.9z" style="mask: url('#SVGID_51_'); fill: url('#SVGID_52_');"/>
				</g>
			</mask><linearGradient id="SVGID_53_" gradientUnits="userSpaceOnUse" x1="535.514" y1="971.7406" x2="535.514" y2="787.8955" style="clip-path: url('#SVGID_2_');">
				<stop offset="0" style="stop-color:#FFFFFF"/>
				<stop offset="1" style="stop-color:#000000"/>
			</linearGradient><defs style="clip-path: url('#SVGID_2_');">
				<filter id="Adobe_OpacityMaskFilter_34_" filterUnits="userSpaceOnUse" x="773.5" y="857.2" width="187.5" height="142.9">
					<feFlood style="flood-color:white;flood-opacity:1" result="back"/>
					<feBlend in="SourceGraphic" in2="back" mode="normal"/>
				</filter>
			</defs><mask maskUnits="userSpaceOnUse" x="773.5" y="857.2" width="187.5" height="142.9" id="SVGID_54_" style="clip-path: url('#SVGID_2_');">
				<g class="st70" style="filter: url('#Adobe_OpacityMaskFilter_34_');">
					<defs>
						<filter id="Adobe_OpacityMaskFilter_35_" filterUnits="userSpaceOnUse" x="773.5" y="857.2" width="187.5" height="142.9">
							<feFlood style="flood-color:white;flood-opacity:1" result="back"/>
							<feBlend in="SourceGraphic" in2="back" mode="normal"/>
						</filter>
					</defs>
					<mask maskUnits="userSpaceOnUse" x="773.5" y="857.2" width="187.5" height="142.9" id="SVGID_54_">
						<g class="st71" style="filter: url('#Adobe_OpacityMaskFilter_35_');">
						</g>
					</mask>
					<linearGradient id="SVGID_55_" gradientUnits="userSpaceOnUse" x1="867.2339" y1="971.7408" x2="867.2339" y2="787.8954">
						<stop offset="0" style="stop-color:#000000"/>
						<stop offset="1" style="stop-color:#FFFFFF"/>
					</linearGradient>
					<path class="st72" d="M951.8,972c10.5-19.4,9.9-25,8.2-27.8c-0.2-0.3-0.5-0.6-0.9-0.8l-9.7-5.6l1.3-2.2&#10;&#9;&#9;&#9;&#9;&#9;&#9;c1.3-2.3,0.5-5.3-1.8-6.6l-3.8-2.2c-2.3-1.3-5.3-0.5-6.6,1.8l-1.3,2.2l-12.5-7.2l1.3-2.2c1.3-2.3,0.5-5.3-1.8-6.6l-3.8-2.2&#10;&#9;&#9;&#9;&#9;&#9;&#9;c-2.3-1.3-5.3-0.5-6.6,1.8l-1.3,2.2L883.9,900l1.3-2.2c1.3-2.3,0.5-5.3-1.8-6.6l-3.8-2.2c-2.3-1.3-5.3-0.5-6.6,1.8l-1.3,2.2&#10;&#9;&#9;&#9;&#9;&#9;&#9;l-12.5-7.2l1.3-2.2c1.3-2.3,0.5-5.3-1.8-6.6l-3.8-2.2c-2.3-1.3-5.3-0.5-6.6,1.8l-1.3,2.2l-13-7.5c-0.1-0.1-0.2-0.1-0.4-0.2&#10;&#9;&#9;&#9;&#9;&#9;&#9;c-0.7-0.3-2.1-0.8-4.1-1.5l1.7-2.9c1.3-2.3,0.5-5.3-1.8-6.6l-3.8-2.2c-2.3-1.3-5.3-0.5-6.6,1.8l-3.3,5.7&#10;&#9;&#9;&#9;&#9;&#9;&#9;c-8.6-2.3-18.6-4.5-26.8-4.5c-5.2,0-9.6,0.9-12.4,3.1c-2,1.7-3.2,4-3.2,6.7c-0.2,11.9,20.6,30.3,22.9,32.4c0,0,0,0,0.1,0.1&#10;&#9;&#9;&#9;&#9;&#9;&#9;c0.1,0.1,10.6,8.6,21.2,17.8c19.8,17.4,21.5,21.5,21.7,22.2c0,0,0,0,0,0c0,0.1,0,0.1,0.1,0.2c0,0.1,0.1,0.2,0.1,0.3&#10;&#9;&#9;&#9;&#9;&#9;&#9;c0,0,0,0,0,0c0,0.1,4.4,9.2,9.5,18.2c9.7,17,13.9,19.2,16.6,19.1c4.2-0.1,11.7-3.7,18.3-6.8c3.2-1.5,7.2-3.4,8.6-3.7&#10;&#9;&#9;&#9;&#9;&#9;&#9;c0.3,0.1,0.7,0.3,1.2,0.5c4.7,1.9,18.8,7.6,22.2,16.4c1.1,3,0.9,6-0.7,9.3c-0.4,0.8-0.3,1.7,0.2,2.5c0.5,0.7,1.4,1.1,2.3,1&#10;&#9;&#9;&#9;&#9;&#9;&#9;c3.1-0.3,18.7-2.4,22.2-8.3C940.5,991.1,946.5,981.9,951.8,972z M856.8,890l12.5,7.2l10.5,6.1c0.3,0.7,0.7,1.4,1,2&#10;&#9;&#9;&#9;&#9;&#9;&#9;c21.3,41.7,41.1,67.9,55.3,83.5c-0.2,0.3-0.3,0.4-0.3,0.5c0,0-0.1,0.1-0.1,0.1c-1.3,2.3-8.5,4.3-14.6,5.4&#10;&#9;&#9;&#9;&#9;&#9;&#9;c0.7-3.1,0.5-6.1-0.6-9.1c-4.1-10.8-19.8-17.1-24.9-19.2c-0.3-0.1-0.7-0.3-0.9-0.4c0,0,0,0,0,0c0,0,0,0,0-0.1&#10;&#9;&#9;&#9;&#9;&#9;&#9;c-0.1-0.1-0.2-0.2-0.3-0.4c0-0.1-0.1-0.1-0.2-0.2c-0.1-0.1-0.2-0.3-0.3-0.4c-0.1-0.1-0.2-0.2-0.2-0.3c-0.1-0.1-0.3-0.3-0.4-0.4&#10;&#9;&#9;&#9;&#9;&#9;&#9;c-0.1-0.1-0.2-0.2-0.3-0.3c-0.1-0.2-0.3-0.3-0.5-0.5c-0.1-0.1-0.2-0.2-0.3-0.4c-0.2-0.2-0.4-0.4-0.5-0.6&#10;&#9;&#9;&#9;&#9;&#9;&#9;c-0.1-0.1-0.2-0.2-0.4-0.4c-0.2-0.2-0.5-0.5-0.7-0.7c-0.1-0.1-0.2-0.2-0.3-0.3c-0.3-0.4-0.7-0.7-1.1-1.1&#10;&#9;&#9;&#9;&#9;&#9;&#9;c-0.1-0.1-0.2-0.2-0.3-0.3c-0.3-0.3-0.6-0.6-0.9-0.8c-0.2-0.2-0.3-0.3-0.5-0.5c-0.3-0.2-0.5-0.5-0.8-0.8&#10;&#9;&#9;&#9;&#9;&#9;&#9;c-0.2-0.2-0.4-0.3-0.6-0.5c-0.3-0.2-0.5-0.5-0.8-0.7c-0.2-0.2-0.4-0.4-0.6-0.5c-0.3-0.3-0.6-0.5-0.9-0.8&#10;&#9;&#9;&#9;&#9;&#9;&#9;c-0.2-0.2-0.4-0.4-0.6-0.5c-0.3-0.3-0.6-0.5-0.9-0.8c-0.2-0.2-0.4-0.3-0.6-0.5c-0.4-0.3-0.7-0.6-1.1-0.9&#10;&#9;&#9;&#9;&#9;&#9;&#9;c-0.2-0.1-0.4-0.3-0.6-0.4c-0.6-0.4-1.1-0.9-1.7-1.3c-0.7-0.5-1.4-1-2.2-1.5c-0.2-0.2-0.5-0.3-0.7-0.5c-0.3-0.2-0.6-0.4-1-0.7&#10;&#9;&#9;&#9;&#9;&#9;&#9;c-11.3-23.8-19.1-43.9-24.2-58.1c-0.6-1.6-1.1-3.2-1.6-4.7L856.8,890z M845.3,944.4c0,0,0.1,0,0.1,0c0.5-0.1,0.9-0.1,1.4-0.2&#10;&#9;&#9;&#9;&#9;&#9;&#9;c0.1,0,0.3,0,0.4,0c0.4,0,0.7,0,1.1-0.1c0.2,0,0.3,0,0.5,0c0.4,0,0.9,0,1.3,0c0.2,0,0.4,0,0.6,0c0.3,0,0.5,0,0.8,0.1&#10;&#9;&#9;&#9;&#9;&#9;&#9;c0.4,0,0.7,0.1,1.1,0.1c0.2,0,0.5,0.1,0.7,0.1c0.3,0,0.6,0.1,0.9,0.1c0.1,0,0.3,0,0.4,0.1c0.6,0.1,1.3,0.3,1.9,0.4c0,0,0,0,0,0&#10;&#9;&#9;&#9;&#9;&#9;&#9;c14,3.5,26.9,15.9,32.3,21.6c-1.7,0.7-3.9,1.7-6.8,3.1c-5.6,2.6-13.2,6.2-16.4,6.3c-0.5-0.1-3.7-1.4-12.6-17.2&#10;&#9;&#9;&#9;&#9;&#9;&#9;C849.8,953.2,846.9,947.6,845.3,944.4z" style="mask: url('#SVGID_54_'); fill: url('#SVGID_55_');"/>
				</g>
			</mask><linearGradient id="SVGID_56_" gradientUnits="userSpaceOnUse" x1="867.2339" y1="971.7408" x2="867.2339" y2="787.8954" style="clip-path: url('#SVGID_2_');">
				<stop offset="0" style="stop-color:#FFFFFF"/>
				<stop offset="1" style="stop-color:#000000"/>
			</linearGradient><defs style="clip-path: url('#SVGID_2_');">
				<filter id="Adobe_OpacityMaskFilter_36_" filterUnits="userSpaceOnUse" x="1119.8" y="857.2" width="173.4" height="173.2">
					<feFlood style="flood-color:white;flood-opacity:1" result="back"/>
					<feBlend in="SourceGraphic" in2="back" mode="normal"/>
				</filter>
			</defs><mask maskUnits="userSpaceOnUse" x="1119.8" y="857.2" width="173.4" height="173.2" id="SVGID_57_" style="clip-path: url('#SVGID_2_');">
				<g class="st74" style="filter: url('#Adobe_OpacityMaskFilter_36_');">
					<defs>
						<filter id="Adobe_OpacityMaskFilter_37_" filterUnits="userSpaceOnUse" x="1119.8" y="857.2" width="173.4" height="173.2">
							<feFlood style="flood-color:white;flood-opacity:1" result="back"/>
							<feBlend in="SourceGraphic" in2="back" mode="normal"/>
						</filter>
					</defs>
					<mask maskUnits="userSpaceOnUse" x="1119.8" y="857.2" width="173.4" height="173.2" id="SVGID_57_">
						<g class="st75" style="filter: url('#Adobe_OpacityMaskFilter_37_');">
						</g>
					</mask>
					<linearGradient id="SVGID_58_" gradientUnits="userSpaceOnUse" x1="1206.5038" y1="971.7407" x2="1206.5038" y2="787.8951">
						<stop offset="0" style="stop-color:#000000"/>
						<stop offset="1" style="stop-color:#FFFFFF"/>
					</linearGradient>
					<path class="st76" d="M1273.7,1010.9c12.8-12.8,23.1-29.8,18.2-37.6c0-0.3-0.1-0.6-0.2-0.9c-0.4-0.8-1.1-1.3-2-1.3&#10;&#9;&#9;&#9;&#9;&#9;&#9;c-1.3-0.8-3-1.2-4.8-1.2c-1.1,0-2.4,0.2-3.6,0.4c-4.1-0.6-9.6-1.7-15.8-3.5c-12.7-3.9-31.3-12.1-47.8-29.5c0,0,0,0,0,0&#10;&#9;&#9;&#9;&#9;&#9;&#9;l-0.2-0.2c0,0,0,0,0,0c0,0,0,0,0,0l-67.2-67.2c0.6-2.6-0.1-5.1-2.8-7.9c-6.3-6.3-16.6-6.3-22.9,0c-6.3,6.3-6.3,16.6,0,22.9&#10;&#9;&#9;&#9;&#9;&#9;&#9;c3,3,5.8,3.5,8.6,2.6l29.8,29.8l0,0l37.2,37.2c0,0,0,0,0,0c0,0,0,0,0,0l0.2,0.2c0,0,0,0,0,0c17.3,16.4,25.6,35,29.5,47.8&#10;&#9;&#9;&#9;&#9;&#9;&#9;c1.8,5.9,2.8,11,3.4,15.1c-1.5,5.7-0.1,8.9,1.6,10.7c0,0,0.1,0,0.1,0.1c0,0,0,0,0,0c2.3,2.2,7.1,3.8,16.8-0.9&#10;&#9;&#9;&#9;&#9;&#9;&#9;C1258.7,1024,1266.5,1018.1,1273.7,1010.9z M1241,1025.6c-1.1,0-1.9-0.2-2.4-0.6c-0.1-0.1-0.2-0.1-0.3-0.2&#10;&#9;&#9;&#9;&#9;&#9;&#9;c-0.9-0.9-1.2-3.1,0-6.9c0.4-1.3,1-2.8,1.8-4.4c3.1-6.4,8.6-13.8,15.5-20.6c6.8-6.8,14.2-12.3,20.6-15.5c2-1,3.7-1.6,5.2-2&#10;&#9;&#9;&#9;&#9;&#9;&#9;c3.3-0.9,5.3-0.6,6.1,0.3c0.1,0.1,0.2,0.2,0.2,0.3c0.4,0.7,0.7,1.8,0.5,3.3c-0.2,1.9-0.9,4.4-2.5,7.7&#10;&#9;&#9;&#9;&#9;&#9;&#9;c-3.1,6.4-8.6,13.8-15.5,20.6c-6.8,6.8-14.2,12.3-20.6,15.5c-3.3,1.6-5.9,2.4-7.8,2.5C1241.6,1025.5,1241.3,1025.6,1241,1025.6&#10;&#9;&#9;&#9;&#9;&#9;&#9;z M1212.4,938.8l-10.5,10.5l-33.7-33.7l10.5-10.5L1212.4,938.8z" style="mask: url('#SVGID_57_'); fill: url('#SVGID_58_');"/>
				</g>
			</mask><linearGradient id="SVGID_59_" gradientUnits="userSpaceOnUse" x1="1206.5038" y1="971.7407" x2="1206.5038" y2="787.8951" style="clip-path: url('#SVGID_2_');">
				<stop offset="0" style="stop-color:#FFFFFF"/>
				<stop offset="1" style="stop-color:#000000"/>
			</linearGradient>
</svg>