<?xml version="1.0" encoding="UTF-8" standalone="no"?>
<!-- Generator: Adobe Illustrator 16.0.0, SVG Export Plug-In . SVG Version: 6.00 Build 0)  -->

<svg
   xmlns:dc="http://purl.org/dc/elements/1.1/"
   xmlns:cc="http://creativecommons.org/ns#"
   xmlns:rdf="http://www.w3.org/1999/02/22-rdf-syntax-ns#"
   xmlns:svg="http://www.w3.org/2000/svg"
   xmlns="http://www.w3.org/2000/svg"
   xmlns:sodipodi="http://sodipodi.sourceforge.net/DTD/sodipodi-0.dtd"
   xmlns:inkscape="http://www.inkscape.org/namespaces/inkscape"
   version="1.1"
   id="Capa_1"
   x="0px"
   y="0px"
   width="470.23px"
   height="470.23px"
   viewBox="0 0 470.23 470.23"
   style="enable-background:new 0 0 470.23 470.23;"
   xml:space="preserve"
   sodipodi:docname="logoBW.svg"
   inkscape:version="0.92.1 r15371"><metadata
     id="metadata51"><rdf:RDF><cc:Work
         rdf:about=""><dc:format>image/svg+xml</dc:format><dc:type
           rdf:resource="http://purl.org/dc/dcmitype/StillImage" /><dc:title></dc:title></cc:Work></rdf:RDF></metadata><defs
     id="defs49"><path
       id="SVGID_1_"
       d="M 0 0 H 1400 V 980 H 0 V 0 Z" /><filter
       height="151.4"
       width="151.4"
       y="256.7"
       x="115.4"
       filterUnits="userSpaceOnUse"
       id="Adobe_OpacityMaskFilter"><feFlood
         id="feFlood4538"
         result="back"
         style="flood-color:white;flood-opacity:1" /><feBlend
         id="feBlend4540"
         mode="normal"
         in2="back"
         in="SourceGraphic" /></filter><filter
       height="151.4"
       width="151.4"
       y="256.7"
       x="115.4"
       filterUnits="userSpaceOnUse"
       id="Adobe_OpacityMaskFilter_1_"><feFlood
         id="feFlood4545"
         result="back"
         style="flood-color:white;flood-opacity:1" /><feBlend
         id="feBlend4547"
         mode="normal"
         in2="back"
         in="SourceGraphic" /></filter><filter
       height="49.4"
       width="47.7"
       y="305.4"
       x="161.6"
       filterUnits="userSpaceOnUse"
       id="Adobe_OpacityMaskFilter_2_"><feFlood
         id="feFlood4571"
         result="back"
         style="flood-color:white;flood-opacity:1" /><feBlend
         id="feBlend4573"
         mode="normal"
         in2="back"
         in="SourceGraphic" /></filter><filter
       height="49.4"
       width="47.7"
       y="305.4"
       x="161.6"
       filterUnits="userSpaceOnUse"
       id="Adobe_OpacityMaskFilter_3_"><feFlood
         id="feFlood4578"
         result="back"
         style="flood-color:white;flood-opacity:1" /><feBlend
         id="feBlend4580"
         mode="normal"
         in2="back"
         in="SourceGraphic" /></filter><filter
       height="162.4"
       width="138.3"
       y="256.7"
       x="460"
       filterUnits="userSpaceOnUse"
       id="Adobe_OpacityMaskFilter_4_"><feFlood
         id="feFlood4604"
         result="back"
         style="flood-color:white;flood-opacity:1" /><feBlend
         id="feBlend4606"
         mode="normal"
         in2="back"
         in="SourceGraphic" /></filter><filter
       height="162.4"
       width="138.3"
       y="256.7"
       x="460"
       filterUnits="userSpaceOnUse"
       id="Adobe_OpacityMaskFilter_5_"><feFlood
         id="feFlood4611"
         result="back"
         style="flood-color:white;flood-opacity:1" /><feBlend
         id="feBlend4613"
         mode="normal"
         in2="back"
         in="SourceGraphic" /></filter><filter
       height="49.4"
       width="49.6"
       y="326.8"
       x="530"
       filterUnits="userSpaceOnUse"
       id="Adobe_OpacityMaskFilter_6_"><feFlood
         id="feFlood4637"
         result="back"
         style="flood-color:white;flood-opacity:1" /><feBlend
         id="feBlend4639"
         mode="normal"
         in2="back"
         in="SourceGraphic" /></filter><filter
       height="49.4"
       width="49.6"
       y="326.8"
       x="530"
       filterUnits="userSpaceOnUse"
       id="Adobe_OpacityMaskFilter_7_"><feFlood
         id="feFlood4644"
         result="back"
         style="flood-color:white;flood-opacity:1" /><feBlend
         id="feBlend4646"
         mode="normal"
         in2="back"
         in="SourceGraphic" /></filter><filter
       height="120.5"
       width="196.3"
       y="256.6"
       x="1107.2"
       filterUnits="userSpaceOnUse"
       id="Adobe_OpacityMaskFilter_8_"><feFlood
         id="feFlood4670"
         result="back"
         style="flood-color:white;flood-opacity:1" /><feBlend
         id="feBlend4672"
         mode="normal"
         in2="back"
         in="SourceGraphic" /></filter><filter
       height="120.5"
       width="196.3"
       y="256.6"
       x="1107.2"
       filterUnits="userSpaceOnUse"
       id="Adobe_OpacityMaskFilter_9_"><feFlood
         id="feFlood4677"
         result="back"
         style="flood-color:white;flood-opacity:1" /><feBlend
         id="feBlend4679"
         mode="normal"
         in2="back"
         in="SourceGraphic" /></filter><filter
       height="150.9"
       width="182.2"
       y="256.7"
       x="776.1"
       filterUnits="userSpaceOnUse"
       id="Adobe_OpacityMaskFilter_10_"><feFlood
         id="feFlood4703"
         result="back"
         style="flood-color:white;flood-opacity:1" /><feBlend
         id="feBlend4705"
         mode="normal"
         in2="back"
         in="SourceGraphic" /></filter><filter
       height="150.9"
       width="182.2"
       y="256.7"
       x="776.1"
       filterUnits="userSpaceOnUse"
       id="Adobe_OpacityMaskFilter_11_"><feFlood
         id="feFlood4710"
         result="back"
         style="flood-color:white;flood-opacity:1" /><feBlend
         id="feBlend4712"
         mode="normal"
         in2="back"
         in="SourceGraphic" /></filter><filter
       height="171.5"
       width="125"
       y="550.5"
       x="120.8"
       filterUnits="userSpaceOnUse"
       id="Adobe_OpacityMaskFilter_12_"><feFlood
         id="feFlood4736"
         result="back"
         style="flood-color:white;flood-opacity:1" /><feBlend
         id="feBlend4738"
         mode="normal"
         in2="back"
         in="SourceGraphic" /></filter><filter
       height="171.5"
       width="125"
       y="550.5"
       x="120.8"
       filterUnits="userSpaceOnUse"
       id="Adobe_OpacityMaskFilter_13_"><feFlood
         id="feFlood4743"
         result="back"
         style="flood-color:white;flood-opacity:1" /><feBlend
         id="feBlend4745"
         mode="normal"
         in2="back"
         in="SourceGraphic" /></filter><filter
       height="170.5"
       width="177.7"
       y="550.5"
       x="441.8"
       filterUnits="userSpaceOnUse"
       id="Adobe_OpacityMaskFilter_14_"><feFlood
         id="feFlood4769"
         result="back"
         style="flood-color:white;flood-opacity:1" /><feBlend
         id="feBlend4771"
         mode="normal"
         in2="back"
         in="SourceGraphic" /></filter><filter
       height="170.5"
       width="177.7"
       y="550.5"
       x="441.8"
       filterUnits="userSpaceOnUse"
       id="Adobe_OpacityMaskFilter_15_"><feFlood
         id="feFlood4776"
         result="back"
         style="flood-color:white;flood-opacity:1" /><feBlend
         id="feBlend4778"
         mode="normal"
         in2="back"
         in="SourceGraphic" /></filter><filter
       height="172.4"
       width="99.5"
       y="550.5"
       x="823.5"
       filterUnits="userSpaceOnUse"
       id="Adobe_OpacityMaskFilter_16_"><feFlood
         id="feFlood4802"
         result="back"
         style="flood-color:white;flood-opacity:1" /><feBlend
         id="feBlend4804"
         mode="normal"
         in2="back"
         in="SourceGraphic" /></filter><filter
       height="172.4"
       width="99.5"
       y="550.5"
       x="823.5"
       filterUnits="userSpaceOnUse"
       id="Adobe_OpacityMaskFilter_17_"><feFlood
         id="feFlood4809"
         result="back"
         style="flood-color:white;flood-opacity:1" /><feBlend
         id="feBlend4811"
         mode="normal"
         in2="back"
         in="SourceGraphic" /></filter><filter
       height="143.7"
       width="178.7"
       y="550.5"
       x="1120.8"
       filterUnits="userSpaceOnUse"
       id="Adobe_OpacityMaskFilter_18_"><feFlood
         id="feFlood4835"
         result="back"
         style="flood-color:white;flood-opacity:1" /><feBlend
         id="feBlend4837"
         mode="normal"
         in2="back"
         in="SourceGraphic" /></filter><filter
       height="143.7"
       width="178.7"
       y="550.5"
       x="1120.8"
       filterUnits="userSpaceOnUse"
       id="Adobe_OpacityMaskFilter_19_"><feFlood
         id="feFlood4842"
         result="back"
         style="flood-color:white;flood-opacity:1" /><feBlend
         id="feBlend4844"
         mode="normal"
         in2="back"
         in="SourceGraphic" /></filter><filter
       height="33.4"
       width="14.6"
       y="635"
       x="1198.9"
       filterUnits="userSpaceOnUse"
       id="Adobe_OpacityMaskFilter_20_"><feFlood
         id="feFlood4868"
         result="back"
         style="flood-color:white;flood-opacity:1" /><feBlend
         id="feBlend4870"
         mode="normal"
         in2="back"
         in="SourceGraphic" /></filter><filter
       height="33.4"
       width="14.6"
       y="635"
       x="1198.9"
       filterUnits="userSpaceOnUse"
       id="Adobe_OpacityMaskFilter_21_"><feFlood
         id="feFlood4875"
         result="back"
         style="flood-color:white;flood-opacity:1" /><feBlend
         id="feBlend4877"
         mode="normal"
         in2="back"
         in="SourceGraphic" /></filter><filter
       height="113.9"
       width="90.7"
       y="928"
       x="146.3"
       filterUnits="userSpaceOnUse"
       id="Adobe_OpacityMaskFilter_22_"><feFlood
         id="feFlood4901"
         result="back"
         style="flood-color:white;flood-opacity:1" /><feBlend
         id="feBlend4903"
         mode="normal"
         in2="back"
         in="SourceGraphic" /></filter><filter
       height="113.9"
       width="90.7"
       y="928"
       x="146.3"
       filterUnits="userSpaceOnUse"
       id="Adobe_OpacityMaskFilter_23_"><feFlood
         id="feFlood4908"
         result="back"
         style="flood-color:white;flood-opacity:1" /><feBlend
         id="feBlend4910"
         mode="normal"
         in2="back"
         in="SourceGraphic" /></filter><filter
       height="74.4"
       width="189"
       y="857.2"
       x="96.6"
       filterUnits="userSpaceOnUse"
       id="Adobe_OpacityMaskFilter_24_"><feFlood
         id="feFlood4934"
         result="back"
         style="flood-color:white;flood-opacity:1" /><feBlend
         id="feBlend4936"
         mode="normal"
         in2="back"
         in="SourceGraphic" /></filter><filter
       height="74.4"
       width="189"
       y="857.2"
       x="96.6"
       filterUnits="userSpaceOnUse"
       id="Adobe_OpacityMaskFilter_25_"><feFlood
         id="feFlood4941"
         result="back"
         style="flood-color:white;flood-opacity:1" /><feBlend
         id="feBlend4943"
         mode="normal"
         in2="back"
         in="SourceGraphic" /></filter><filter
       height="111.8"
       width="89.1"
       y="930.4"
       x="483.5"
       filterUnits="userSpaceOnUse"
       id="Adobe_OpacityMaskFilter_26_"><feFlood
         id="feFlood4967"
         result="back"
         style="flood-color:white;flood-opacity:1" /><feBlend
         id="feBlend4969"
         mode="normal"
         in2="back"
         in="SourceGraphic" /></filter><filter
       height="111.8"
       width="89.1"
       y="930.4"
       x="483.5"
       filterUnits="userSpaceOnUse"
       id="Adobe_OpacityMaskFilter_27_"><feFlood
         id="feFlood4974"
         result="back"
         style="flood-color:white;flood-opacity:1" /><feBlend
         id="feBlend4976"
         mode="normal"
         in2="back"
         in="SourceGraphic" /></filter><filter
       height="75.8"
       width="189"
       y="857.2"
       x="434.6"
       filterUnits="userSpaceOnUse"
       id="Adobe_OpacityMaskFilter_28_"><feFlood
         id="feFlood5000"
         result="back"
         style="flood-color:white;flood-opacity:1" /><feBlend
         id="feBlend5002"
         mode="normal"
         in2="back"
         in="SourceGraphic" /></filter><filter
       height="75.8"
       width="189"
       y="857.2"
       x="434.6"
       filterUnits="userSpaceOnUse"
       id="Adobe_OpacityMaskFilter_29_"><feFlood
         id="feFlood5007"
         result="back"
         style="flood-color:white;flood-opacity:1" /><feBlend
         id="feBlend5009"
         mode="normal"
         in2="back"
         in="SourceGraphic" /></filter><filter
       height="24.5"
       width="10.9"
       y="868.6"
       x="509.1"
       filterUnits="userSpaceOnUse"
       id="Adobe_OpacityMaskFilter_30_"><feFlood
         id="feFlood5033"
         result="back"
         style="flood-color:white;flood-opacity:1" /><feBlend
         id="feBlend5035"
         mode="normal"
         in2="back"
         in="SourceGraphic" /></filter><filter
       height="24.5"
       width="10.9"
       y="868.6"
       x="509.1"
       filterUnits="userSpaceOnUse"
       id="Adobe_OpacityMaskFilter_31_"><feFlood
         id="feFlood5040"
         result="back"
         style="flood-color:white;flood-opacity:1" /><feBlend
         id="feBlend5042"
         mode="normal"
         in2="back"
         in="SourceGraphic" /></filter><filter
       height="25.2"
       width="16.8"
       y="868.2"
       x="527.1"
       filterUnits="userSpaceOnUse"
       id="Adobe_OpacityMaskFilter_32_"><feFlood
         id="feFlood5066"
         result="back"
         style="flood-color:white;flood-opacity:1" /><feBlend
         id="feBlend5068"
         mode="normal"
         in2="back"
         in="SourceGraphic" /></filter><filter
       height="25.2"
       width="16.8"
       y="868.2"
       x="527.1"
       filterUnits="userSpaceOnUse"
       id="Adobe_OpacityMaskFilter_33_"><feFlood
         id="feFlood5073"
         result="back"
         style="flood-color:white;flood-opacity:1" /><feBlend
         id="feBlend5075"
         mode="normal"
         in2="back"
         in="SourceGraphic" /></filter><filter
       height="142.9"
       width="187.5"
       y="857.2"
       x="773.5"
       filterUnits="userSpaceOnUse"
       id="Adobe_OpacityMaskFilter_34_"><feFlood
         id="feFlood5099"
         result="back"
         style="flood-color:white;flood-opacity:1" /><feBlend
         id="feBlend5101"
         mode="normal"
         in2="back"
         in="SourceGraphic" /></filter><filter
       height="142.9"
       width="187.5"
       y="857.2"
       x="773.5"
       filterUnits="userSpaceOnUse"
       id="Adobe_OpacityMaskFilter_35_"><feFlood
         id="feFlood5106"
         result="back"
         style="flood-color:white;flood-opacity:1" /><feBlend
         id="feBlend5108"
         mode="normal"
         in2="back"
         in="SourceGraphic" /></filter><filter
       height="173.2"
       width="173.4"
       y="857.2"
       x="1119.8"
       filterUnits="userSpaceOnUse"
       id="Adobe_OpacityMaskFilter_36_"><feFlood
         id="feFlood5132"
         result="back"
         style="flood-color:white;flood-opacity:1" /><feBlend
         id="feBlend5134"
         mode="normal"
         in2="back"
         in="SourceGraphic" /></filter><filter
       height="173.2"
       width="173.4"
       y="857.2"
       x="1119.8"
       filterUnits="userSpaceOnUse"
       id="Adobe_OpacityMaskFilter_37_"><feFlood
         id="feFlood5139"
         result="back"
         style="flood-color:white;flood-opacity:1" /><feBlend
         id="feBlend5141"
         mode="normal"
         in2="back"
         in="SourceGraphic" /></filter></defs><sodipodi:namedview
     pagecolor="#ffffff"
     bordercolor="#666666"
     borderopacity="1"
     objecttolerance="10"
     gridtolerance="10"
     guidetolerance="10"
     inkscape:pageopacity="0"
     inkscape:pageshadow="2"
     inkscape:window-width="1920"
     inkscape:window-height="1001"
     id="namedview47"
     showgrid="false"
     inkscape:zoom="0.50188205"
     inkscape:cx="235.11501"
     inkscape:cy="235.11501"
     inkscape:window-x="-9"
     inkscape:window-y="-9"
     inkscape:window-maximized="1"
     inkscape:current-layer="Capa_1" /><g
     id="g14"><path
       d="M457.703,161.312c0-13.321-10.786-24.098-24.106-24.098h-24.098v52.211h24.098c13.32,0,24.106-10.787,24.106-24.098   V161.312z"
       id="path2" /><path
       d="M457.703,222.884c0-13.311-10.786-24.097-24.106-24.097h-24.098v52.202h24.098c13.32,0,24.106-10.787,24.106-24.088   V222.884z"
       id="path4" /><path
       d="M457.703,288.483v-4.016c0-13.312-10.786-24.098-24.106-24.098h-24.098v52.201h24.098   C446.917,312.571,457.703,301.794,457.703,288.483z"
       id="path6" /><path
       d="M470.23,70.478v-3.356c0-13.311-10.347-21.038-23.113-17.27l-37.608,4.36v55.549l37.991-7.201   C460.046,98.161,470.23,83.789,470.23,70.478z"
       id="path8" /><path
       d="M326.602,362.679h50.403c13.178,0,23.868-10.691,23.868-23.887V32.476c0-13.187-10.69-23.887-23.868-23.887H216.422   c-13.196,0-23.858,10.701-23.858,23.887v80.574V213.36h32.207V54.575c0-3.634,2.955-6.579,6.579-6.579h130.71   c3.652,0,6.578,2.945,6.578,6.579v235.821c0,3.643-2.936,6.58-6.578,6.58H245.157v40.85c-0.86,2.926-1.76,5.346-1.76,5.346h41.855   c-2.447-2.668-3.978-6.195-3.978-10.107c0-8.301,6.731-15.041,15.042-15.041c8.29,0,15.013,6.74,15.013,15.041   c0,3.902-1.521,7.43-3.969,10.107h23.371l-2.209,11.389C328.438,355.048,327.807,358.108,326.602,362.679z"
       id="path10" /><path
       d="M225.793,451.495c14-6.99,33.574-15.291,50.805-27.664c26.106-18.752,35.478-66.928,35.478-66.928h-69.491   c-14.468,33.143-44.332,61.17-45.823,62.557c-1.836,1.713-4.169,2.555-6.493,2.555c-2.563,0-5.135-1.023-7.009-3.061   c-3.596-3.863-3.366-9.916,0.497-13.512c0.373-0.334,35.276-33.105,44.992-66.135v-52.842h80.985   c17.748,0,32.13-13.379,32.13-29.873c0-16.496-14.392-29.864-32.13-29.864H177.216v-93.387l-52.297,35.209   c-15.214,9.123-32.809,29.912-39.292,46.426L1.123,443.702c-3.663,9.906,1.932,17.939,12.498,17.939h176.935   C201.113,461.642,216.346,456.21,225.793,451.495z"
       id="path12" /></g><g
     id="g16" /><g
     id="g18" /><g
     id="g20" /><g
     id="g22" /><g
     id="g24" /><g
     id="g26" /><g
     id="g28" /><g
     id="g30" /><g
     id="g32" /><g
     id="g34" /><g
     id="g36" /><g
     id="g38" /><g
     id="g40" /><g
     id="g42" /><g
     id="g44" /><g
     id="g5287"
     transform="matrix(0.81373844,0,0,0.81373844,141.42621,0.31084579)"><path
       id="path4534"
       clip-path="url(#SVGID_2_)"
       style="fill:#111110"
       d="m 191.1,256.7 c 14.4,0 28.2,-4 40.1,-11.5 l 1.6,-0.6 0.1,-0.5 c 4.2,-2.8 8.1,-6 11.8,-9.6 14.3,-14.3 22.2,-33.3 22.2,-53.5 0,-20.2 -7.9,-39.2 -22.2,-53.5 -14.3,-14.3 -33.3,-22.2 -53.5,-22.2 -20.2,0 -39.2,7.9 -53.5,22.2 -0.9,0.9 -1.8,1.9 -2.7,2.8 -0.8,0.7 -1.6,1.6 -2.3,2.7 -11.1,13.5 -17.2,30.3 -17.2,48 0,20.2 7.9,39.2 22.2,53.5 14.1,14.3 33.1,22.2 53.4,22.2 z m -52.7,-98.2 c 0,0 9.5,-26.7 9.2,-27.5 -0.1,-0.3 -1,-0.6 -2.3,-0.9 10.4,-9.4 23.8,-15.6 38.5,-17.2 l -5.8,7.2 17.9,20.4 29.4,-6.2 -0.7,-13 c 16.2,9.1 28.4,24.6 33,43.1 l -13.9,-7.4 -10.4,28 10.1,27.3 12.8,-9.8 c -4.1,12.5 -11.7,23.3 -21.7,31.5 l 0.9,-5.6 -36.8,2.8 -15.8,17.7 c -11.9,-1.5 -22.9,-6 -32.1,-12.8 0.3,0 0.5,0 0.5,0 L 144,207.8 123.9,193.4 c -0.7,-4 -1.2,-8.2 -1.2,-12.4 0,-4.6 0.5,-9 1.3,-13.3 z"
       class="st1"
       inkscape:connector-curvature="0" /><path
       id="path4536"
       clip-path="url(#SVGID_2_)"
       style="fill:#111110"
       class="st1"
       d="M 192.2,207.89999 209.3,184 l -17.40001,-25.5 -30.29998,9.7 1,30.3 z"
       inkscape:connector-curvature="0" /></g></svg>