<?xml version="1.0" encoding="UTF-8" standalone="no"?>
<!-- Generator: Adobe Illustrator 16.0.0, SVG Export Plug-In . SVG Version: 6.00 Build 0)  -->

<svg
   xmlns:dc="http://purl.org/dc/elements/1.1/"
   xmlns:cc="http://creativecommons.org/ns#"
   xmlns:rdf="http://www.w3.org/1999/02/22-rdf-syntax-ns#"
   xmlns:svg="http://www.w3.org/2000/svg"
   xmlns="http://www.w3.org/2000/svg"
   xmlns:sodipodi="http://sodipodi.sourceforge.net/DTD/sodipodi-0.dtd"
   xmlns:inkscape="http://www.inkscape.org/namespaces/inkscape"
   version="1.1"
   id="Capa_1"
   x="0px"
   y="0px"
   width="470.23px"
   height="470.23px"
   viewBox="0 0 470.23 470.23"
   style="enable-background:new 0 0 470.23 470.23;"
   xml:space="preserve"
   sodipodi:docname="logoBWInvert.svg"
   inkscape:version="0.92.1 r15371"><metadata
     id="metadata51"><rdf:RDF><cc:Work
         rdf:about=""><dc:format>image/svg+xml</dc:format><dc:type
           rdf:resource="http://purl.org/dc/dcmitype/StillImage" /><dc:title></dc:title></cc:Work></rdf:RDF></metadata><defs
     id="defs49"><path
       id="SVGID_1_"
       d="M 0 0 H 1400 V 980 H 0 V 0 Z" /><filter
       height="151.4"
       width="151.4"
       y="256.7"
       x="115.4"
       filterUnits="userSpaceOnUse"
       id="Adobe_OpacityMaskFilter"><feFlood
         id="feFlood4538"
         result="back"
         style="flood-color:white;flood-opacity:1" /><feBlend
         id="feBlend4540"
         mode="normal"
         in2="back"
         in="SourceGraphic" /></filter><filter
       height="151.4"
       width="151.4"
       y="256.7"
       x="115.4"
       filterUnits="userSpaceOnUse"
       id="Adobe_OpacityMaskFilter_1_"><feFlood
         id="feFlood4545"
         result="back"
         style="flood-color:white;flood-opacity:1" /><feBlend
         id="feBlend4547"
         mode="normal"
         in2="back"
         in="SourceGraphic" /></filter><filter
       height="49.4"
       width="47.7"
       y="305.4"
       x="161.6"
       filterUnits="userSpaceOnUse"
       id="Adobe_OpacityMaskFilter_2_"><feFlood
         id="feFlood4571"
         result="back"
         style="flood-color:white;flood-opacity:1" /><feBlend
         id="feBlend4573"
         mode="normal"
         in2="back"
         in="SourceGraphic" /></filter><filter
       height="49.4"
       width="47.7"
       y="305.4"
       x="161.6"
       filterUnits="userSpaceOnUse"
       id="Adobe_OpacityMaskFilter_3_"><feFlood
         id="feFlood4578"
         result="back"
         style="flood-color:white;flood-opacity:1" /><feBlend
         id="feBlend4580"
         mode="normal"
         in2="back"
         in="SourceGraphic" /></filter><filter
       height="162.4"
       width="138.3"
       y="256.7"
       x="460"
       filterUnits="userSpaceOnUse"
       id="Adobe_OpacityMaskFilter_4_"><feFlood
         id="feFlood4604"
         result="back"
         style="flood-color:white;flood-opacity:1" /><feBlend
         id="feBlend4606"
         mode="normal"
         in2="back"
         in="SourceGraphic" /></filter><filter
       height="162.4"
       width="138.3"
       y="256.7"
       x="460"
       filterUnits="userSpaceOnUse"
       id="Adobe_OpacityMaskFilter_5_"><feFlood
         id="feFlood4611"
         result="back"
         style="flood-color:white;flood-opacity:1" /><feBlend
         id="feBlend4613"
         mode="normal"
         in2="back"
         in="SourceGraphic" /></filter><filter
       height="49.4"
       width="49.6"
       y="326.8"
       x="530"
       filterUnits="userSpaceOnUse"
       id="Adobe_OpacityMaskFilter_6_"><feFlood
         id="feFlood4637"
         result="back"
         style="flood-color:white;flood-opacity:1" /><feBlend
         id="feBlend4639"
         mode="normal"
         in2="back"
         in="SourceGraphic" /></filter><filter
       height="49.4"
       width="49.6"
       y="326.8"
       x="530"
       filterUnits="userSpaceOnUse"
       id="Adobe_OpacityMaskFilter_7_"><feFlood
         id="feFlood4644"
         result="back"
         style="flood-color:white;flood-opacity:1" /><feBlend
         id="feBlend4646"
         mode="normal"
         in2="back"
         in="SourceGraphic" /></filter><filter
       height="120.5"
       width="196.3"
       y="256.6"
       x="1107.2"
       filterUnits="userSpaceOnUse"
       id="Adobe_OpacityMaskFilter_8_"><feFlood
         id="feFlood4670"
         result="back"
         style="flood-color:white;flood-opacity:1" /><feBlend
         id="feBlend4672"
         mode="normal"
         in2="back"
         in="SourceGraphic" /></filter><filter
       height="120.5"
       width="196.3"
       y="256.6"
       x="1107.2"
       filterUnits="userSpaceOnUse"
       id="Adobe_OpacityMaskFilter_9_"><feFlood
         id="feFlood4677"
         result="back"
         style="flood-color:white;flood-opacity:1" /><feBlend
         id="feBlend4679"
         mode="normal"
         in2="back"
         in="SourceGraphic" /></filter><filter
       height="150.9"
       width="182.2"
       y="256.7"
       x="776.1"
       filterUnits="userSpaceOnUse"
       id="Adobe_OpacityMaskFilter_10_"><feFlood
         id="feFlood4703"
         result="back"
         style="flood-color:white;flood-opacity:1" /><feBlend
         id="feBlend4705"
         mode="normal"
         in2="back"
         in="SourceGraphic" /></filter><filter
       height="150.9"
       width="182.2"
       y="256.7"
       x="776.1"
       filterUnits="userSpaceOnUse"
       id="Adobe_OpacityMaskFilter_11_"><feFlood
         id="feFlood4710"
         result="back"
         style="flood-color:white;flood-opacity:1" /><feBlend
         id="feBlend4712"
         mode="normal"
         in2="back"
         in="SourceGraphic" /></filter><filter
       height="171.5"
       width="125"
       y="550.5"
       x="120.8"
       filterUnits="userSpaceOnUse"
       id="Adobe_OpacityMaskFilter_12_"><feFlood
         id="feFlood4736"
         result="back"
         style="flood-color:white;flood-opacity:1" /><feBlend
         id="feBlend4738"
         mode="normal"
         in2="back"
         in="SourceGraphic" /></filter><filter
       height="171.5"
       width="125"
       y="550.5"
       x="120.8"
       filterUnits="userSpaceOnUse"
       id="Adobe_OpacityMaskFilter_13_"><feFlood
         id="feFlood4743"
         result="back"
         style="flood-color:white;flood-opacity:1" /><feBlend
         id="feBlend4745"
         mode="normal"
         in2="back"
         in="SourceGraphic" /></filter><filter
       height="170.5"
       width="177.7"
       y="550.5"
       x="441.8"
       filterUnits="userSpaceOnUse"
       id="Adobe_OpacityMaskFilter_14_"><feFlood
         id="feFlood4769"
         result="back"
         style="flood-color:white;flood-opacity:1" /><feBlend
         id="feBlend4771"
         mode="normal"
         in2="back"
         in="SourceGraphic" /></filter><filter
       height="170.5"
       width="177.7"
       y="550.5"
       x="441.8"
       filterUnits="userSpaceOnUse"
       id="Adobe_OpacityMaskFilter_15_"><feFlood
         id="feFlood4776"
         result="back"
         style="flood-color:white;flood-opacity:1" /><feBlend
         id="feBlend4778"
         mode="normal"
         in2="back"
         in="SourceGraphic" /></filter><filter
       height="172.4"
       width="99.5"
       y="550.5"
       x="823.5"
       filterUnits="userSpaceOnUse"
       id="Adobe_OpacityMaskFilter_16_"><feFlood
         id="feFlood4802"
         result="back"
         style="flood-color:white;flood-opacity:1" /><feBlend
         id="feBlend4804"
         mode="normal"
         in2="back"
         in="SourceGraphic" /></filter><filter
       height="172.4"
       width="99.5"
       y="550.5"
       x="823.5"
       filterUnits="userSpaceOnUse"
       id="Adobe_OpacityMaskFilter_17_"><feFlood
         id="feFlood4809"
         result="back"
         style="flood-color:white;flood-opacity:1" /><feBlend
         id="feBlend4811"
         mode="normal"
         in2="back"
         in="SourceGraphic" /></filter><filter
       height="143.7"
       width="178.7"
       y="550.5"
       x="1120.8"
       filterUnits="userSpaceOnUse"
       id="Adobe_OpacityMaskFilter_18_"><feFlood
         id="feFlood4835"
         result="back"
         style="flood-color:white;flood-opacity:1" /><feBlend
         id="feBlend4837"
         mode="normal"
         in2="back"
         in="SourceGraphic" /></filter><filter
       height="143.7"
       width="178.7"
       y="550.5"
       x="1120.8"
       filterUnits="userSpaceOnUse"
       id="Adobe_OpacityMaskFilter_19_"><feFlood
         id="feFlood4842"
         result="back"
         style="flood-color:white;flood-opacity:1" /><feBlend
         id="feBlend4844"
         mode="normal"
         in2="back"
         in="SourceGraphic" /></filter><filter
       height="33.4"
       width="14.6"
       y="635"
       x="1198.9"
       filterUnits="userSpaceOnUse"
       id="Adobe_OpacityMaskFilter_20_"><feFlood
         id="feFlood4868"
         result="back"
         style="flood-color:white;flood-opacity:1" /><feBlend
         id="feBlend4870"
         mode="normal"
         in2="back"
         in="SourceGraphic" /></filter><filter
       height="33.4"
       width="14.6"
       y="635"
       x="1198.9"
       filterUnits="userSpaceOnUse"
       id="Adobe_OpacityMaskFilter_21_"><feFlood
         id="feFlood4875"
         result="back"
         style="flood-color:white;flood-opacity:1" /><feBlend
         id="feBlend4877"
         mode="normal"
         in2="back"
         in="SourceGraphic" /></filter><filter
       height="113.9"
       width="90.7"
       y="928"
       x="146.3"
       filterUnits="userSpaceOnUse"
       id="Adobe_OpacityMaskFilter_22_"><feFlood
         id="feFlood4901"
         result="back"
         style="flood-color:white;flood-opacity:1" /><feBlend
         id="feBlend4903"
         mode="normal"
         in2="back"
         in="SourceGraphic" /></filter><filter
       height="113.9"
       width="90.7"
       y="928"
       x="146.3"
       filterUnits="userSpaceOnUse"
       id="Adobe_OpacityMaskFilter_23_"><feFlood
         id="feFlood4908"
         result="back"
         style="flood-color:white;flood-opacity:1" /><feBlend
         id="feBlend4910"
         mode="normal"
         in2="back"
         in="SourceGraphic" /></filter><filter
       height="74.4"
       width="189"
       y="857.2"
       x="96.6"
       filterUnits="userSpaceOnUse"
       id="Adobe_OpacityMaskFilter_24_"><feFlood
         id="feFlood4934"
         result="back"
         style="flood-color:white;flood-opacity:1" /><feBlend
         id="feBlend4936"
         mode="normal"
         in2="back"
         in="SourceGraphic" /></filter><filter
       height="74.4"
       width="189"
       y="857.2"
       x="96.6"
       filterUnits="userSpaceOnUse"
       id="Adobe_OpacityMaskFilter_25_"><feFlood
         id="feFlood4941"
         result="back"
         style="flood-color:white;flood-opacity:1" /><feBlend
         id="feBlend4943"
         mode="normal"
         in2="back"
         in="SourceGraphic" /></filter><filter
       height="111.8"
       width="89.1"
       y="930.4"
       x="483.5"
       filterUnits="userSpaceOnUse"
       id="Adobe_OpacityMaskFilter_26_"><feFlood
         id="feFlood4967"
         result="back"
         style="flood-color:white;flood-opacity:1" /><feBlend
         id="feBlend4969"
         mode="normal"
         in2="back"
         in="SourceGraphic" /></filter><filter
       height="111.8"
       width="89.1"
       y="930.4"
       x="483.5"
       filterUnits="userSpaceOnUse"
       id="Adobe_OpacityMaskFilter_27_"><feFlood
         id="feFlood4974"
         result="back"
         style="flood-color:white;flood-opacity:1" /><feBlend
         id="feBlend4976"
         mode="normal"
         in2="back"
         in="SourceGraphic" /></filter><filter
       height="75.8"
       width="189"
       y="857.2"
       x="434.6"
       filterUnits="userSpaceOnUse"
       id="Adobe_OpacityMaskFilter_28_"><feFlood
         id="feFlood5000"
         result="back"
         style="flood-color:white;flood-opacity:1" /><feBlend
         id="feBlend5002"
         mode="normal"
         in2="back"
         in="SourceGraphic" /></filter><filter
       height="75.8"
       width="189"
       y="857.2"
       x="434.6"
       filterUnits="userSpaceOnUse"
       id="Adobe_OpacityMaskFilter_29_"><feFlood
         id="feFlood5007"
         result="back"
         style="flood-color:white;flood-opacity:1" /><feBlend
         id="feBlend5009"
         mode="normal"
         in2="back"
         in="SourceGraphic" /></filter><filter
       height="24.5"
       width="10.9"
       y="868.6"
       x="509.1"
       filterUnits="userSpaceOnUse"
       id="Adobe_OpacityMaskFilter_30_"><feFlood
         id="feFlood5033"
         result="back"
         style="flood-color:white;flood-opacity:1" /><feBlend
         id="feBlend5035"
         mode="normal"
         in2="back"
         in="SourceGraphic" /></filter><filter
       height="24.5"
       width="10.9"
       y="868.6"
       x="509.1"
       filterUnits="userSpaceOnUse"
       id="Adobe_OpacityMaskFilter_31_"><feFlood
         id="feFlood5040"
         result="back"
         style="flood-color:white;flood-opacity:1" /><feBlend
         id="feBlend5042"
         mode="normal"
         in2="back"
         in="SourceGraphic" /></filter><filter
       height="25.2"
       width="16.8"
       y="868.2"
       x="527.1"
       filterUnits="userSpaceOnUse"
       id="Adobe_OpacityMaskFilter_32_"><feFlood
         id="feFlood5066"
         result="back"
         style="flood-color:white;flood-opacity:1" /><feBlend
         id="feBlend5068"
         mode="normal"
         in2="back"
         in="SourceGraphic" /></filter><filter
       height="25.2"
       width="16.8"
       y="868.2"
       x="527.1"
       filterUnits="userSpaceOnUse"
       id="Adobe_OpacityMaskFilter_33_"><feFlood
         id="feFlood5073"
         result="back"
         style="flood-color:white;flood-opacity:1" /><feBlend
         id="feBlend5075"
         mode="normal"
         in2="back"
         in="SourceGraphic" /></filter><filter
       height="142.9"
       width="187.5"
       y="857.2"
       x="773.5"
       filterUnits="userSpaceOnUse"
       id="Adobe_OpacityMaskFilter_34_"><feFlood
         id="feFlood5099"
         result="back"
         style="flood-color:white;flood-opacity:1" /><feBlend
         id="feBlend5101"
         mode="normal"
         in2="back"
         in="SourceGraphic" /></filter><filter
       height="142.9"
       width="187.5"
       y="857.2"
       x="773.5"
       filterUnits="userSpaceOnUse"
       id="Adobe_OpacityMaskFilter_35_"><feFlood
         id="feFlood5106"
         result="back"
         style="flood-color:white;flood-opacity:1" /><feBlend
         id="feBlend5108"
         mode="normal"
         in2="back"
         in="SourceGraphic" /></filter><filter
       height="173.2"
       width="173.4"
       y="857.2"
       x="1119.8"
       filterUnits="userSpaceOnUse"
       id="Adobe_OpacityMaskFilter_36_"><feFlood
         id="feFlood5132"
         result="back"
         style="flood-color:white;flood-opacity:1" /><feBlend
         id="feBlend5134"
         mode="normal"
         in2="back"
         in="SourceGraphic" /></filter><filter
       height="173.2"
       width="173.4"
       y="857.2"
       x="1119.8"
       filterUnits="userSpaceOnUse"
       id="Adobe_OpacityMaskFilter_37_"><feFlood
         id="feFlood5139"
         result="back"
         style="flood-color:white;flood-opacity:1" /><feBlend
         id="feBlend5141"
         mode="normal"
         in2="back"
         in="SourceGraphic" /></filter></defs><sodipodi:namedview
     pagecolor="#ffffff"
     bordercolor="#666666"
     borderopacity="1"
     objecttolerance="10"
     gridtolerance="10"
     guidetolerance="10"
     inkscape:pageopacity="0"
     inkscape:pageshadow="2"
     inkscape:window-width="1920"
     inkscape:window-height="1001"
     id="namedview47"
     showgrid="false"
     inkscape:zoom="0.50188205"
     inkscape:cx="235.11501"
     inkscape:cy="235.11501"
     inkscape:window-x="-9"
     inkscape:window-y="-9"
     inkscape:window-maximized="1"
     inkscape:current-layer="Capa_1" /><path
     style="display:inline;opacity:1;fill:#172727;fill-opacity:1;stroke:#172727;stroke-width:10;stroke-miterlimit:4;stroke-dasharray:none;stroke-opacity:0"
     d="M -17.931641 -13.947266 L -17.931641 506.05273 L 502.06836 506.05273 L 502.06836 -13.947266 L -17.931641 -13.947266 z M 216.42188 8.5898438 L 377.00586 8.5898438 C 390.18386 8.5898438 400.87305 19.289563 400.87305 32.476562 L 400.87305 338.79297 C 400.87305 351.98897 390.18386 362.67969 377.00586 362.67969 L 326.60156 362.67969 C 327.80656 358.10869 328.43748 355.04755 328.52148 354.56055 L 330.73047 343.17188 L 307.35938 343.17188 C 309.80737 340.49488 311.32812 336.96645 311.32812 333.06445 C 311.32812 324.76345 304.60641 318.02344 296.31641 318.02344 C 288.00541 318.02344 281.27344 324.76345 281.27344 333.06445 C 281.27344 336.97645 282.80495 340.50387 285.25195 343.17188 L 243.39648 343.17188 C 243.39648 343.17188 244.29625 340.75217 245.15625 337.82617 L 245.15625 296.97656 L 362.06055 296.97656 C 365.70255 296.97656 368.63867 294.03948 368.63867 290.39648 L 368.63867 54.574219 C 368.63867 50.940219 365.71255 47.996094 362.06055 47.996094 L 231.34961 47.996094 C 227.72561 47.996094 224.77148 50.940219 224.77148 54.574219 L 224.77148 213.35938 L 192.56445 213.35938 L 192.56445 113.05078 L 192.56445 32.476562 C 192.56445 19.290563 203.22588 8.5898438 216.42188 8.5898438 z M 452.89453 48.904297 C 462.86471 48.634192 470.23047 55.889938 470.23047 67.121094 L 470.23047 70.478516 C 470.23047 83.789516 460.046 98.161547 447.5 102.56055 L 409.50977 109.76172 L 409.50977 54.212891 L 447.11719 49.851562 C 449.11187 49.262813 451.0482 48.954316 452.89453 48.904297 z M 297.01367 85.998047 C 313.45119 85.998047 328.91237 92.42604 340.54883 104.0625 C 352.18529 115.69896 358.61328 131.16014 358.61328 147.59766 C 358.61328 164.03517 352.18529 179.49635 340.54883 191.13281 C 337.538 194.06227 334.36301 196.66684 330.94531 198.94531 L 330.86523 199.35156 L 329.5625 199.83984 C 319.87901 205.94288 308.64947 209.19727 296.93164 209.19727 C 280.41275 209.19727 264.95223 202.76927 253.47852 191.13281 C 241.84206 179.49635 235.41211 164.03517 235.41211 147.59766 C 235.41211 133.19449 240.37766 119.52258 249.41016 108.53711 C 249.97977 107.642 250.63026 106.91141 251.28125 106.3418 C 252.01361 105.60943 252.74615 104.79486 253.47852 104.0625 C 265.11498 92.42604 280.57616 85.998047 297.01367 85.998047 z M 290.99219 92.181641 C 279.03023 93.483622 268.12499 98.528593 259.66211 106.17773 C 260.71997 106.42186 261.45183 106.66603 261.5332 106.91016 C 261.77732 107.56115 254.04688 129.28906 254.04688 129.28906 L 242.33008 136.77539 C 241.67909 140.27447 241.27148 143.85446 241.27148 147.59766 C 241.27148 151.01536 241.67843 154.43255 242.24805 157.6875 L 258.60547 169.40625 L 264.46289 192.43359 L 264.05664 192.43359 C 271.54303 197.96702 280.49425 201.629 290.17773 202.84961 L 303.03516 188.44727 L 332.98047 186.16797 L 332.24805 190.72656 C 340.38543 184.05391 346.56992 175.26548 349.90625 165.09375 L 339.49023 173.06836 L 331.27148 150.85156 L 339.73438 128.06836 L 351.04492 134.08984 C 347.30173 119.03568 337.37397 106.4226 324.19141 99.017578 L 324.76172 109.5957 L 300.83789 114.64062 L 286.27148 98.041016 L 290.99219 92.181641 z M 297.58203 129.28906 L 311.74219 150.03906 L 297.82617 169.48633 L 273.74023 161.83789 L 272.92578 137.18164 L 297.58203 129.28906 z M 177.2168 133.3418 L 177.2168 226.72852 L 309.73438 226.72852 C 327.47237 226.72852 341.86328 240.0958 341.86328 256.5918 C 341.86328 273.0858 327.48237 286.46484 309.73438 286.46484 L 228.74805 286.46484 L 228.74805 339.30664 C 219.03205 372.33664 184.13081 405.10741 183.75781 405.44141 C 179.89481 409.03741 179.66377 415.09013 183.25977 418.95312 C 185.13377 420.99112 187.70653 422.01562 190.26953 422.01562 C 192.59353 422.01563 194.92572 421.17394 196.76172 419.46094 C 198.25272 418.07394 228.11794 390.04534 242.58594 356.90234 L 312.07617 356.90234 C 312.07617 356.90234 302.70366 405.07808 276.59766 423.83008 C 259.36666 436.20308 239.79297 444.50414 225.79297 451.49414 C 216.34597 456.20914 201.11364 461.64162 190.55664 461.64062 L 13.621094 461.64062 C 3.0550937 461.64062 -2.5399531 453.60717 1.1230469 443.70117 L 85.626953 214.97656 C 92.109953 198.46256 109.70592 177.67378 124.91992 168.55078 L 177.2168 133.3418 z M 409.49805 137.21484 L 433.59766 137.21484 C 446.91766 137.21484 457.70312 147.9915 457.70312 161.3125 L 457.70312 165.32617 C 457.70313 178.63717 446.91766 189.42578 433.59766 189.42578 L 409.49805 189.42578 L 409.49805 137.21484 z M 409.49805 198.78711 L 433.59766 198.78711 C 446.91766 198.78711 457.70312 209.57377 457.70312 222.88477 L 457.70312 226.90039 C 457.70313 240.20139 446.91766 250.98828 433.59766 250.98828 L 409.49805 250.98828 L 409.49805 198.78711 z M 409.49805 260.36914 L 433.59766 260.36914 C 446.91766 260.36914 457.70312 271.1548 457.70312 284.4668 L 457.70312 288.48242 C 457.70313 301.79342 446.91766 312.57131 433.59766 312.57031 L 409.49805 312.57031 L 409.49805 260.36914 z "
     id="rect5323" /><g
     id="g5299"
     style="fill:#172727;fill-opacity:1"><g
       id="g14"
       style="fill:#172727;fill-opacity:1" /><g
       transform="matrix(0.81373844,0,0,0.81373844,141.42621,0.31084579)"
       id="g5287"
       style="fill:#172727;fill-opacity:1" /></g></svg>