<?xml version="1.0" encoding="UTF-8" standalone="no"?>
<svg
   xmlns:dc="http://purl.org/dc/elements/1.1/"
   xmlns:cc="http://creativecommons.org/ns#"
   xmlns:rdf="http://www.w3.org/1999/02/22-rdf-syntax-ns#"
   xmlns:svg="http://www.w3.org/2000/svg"
   xmlns="http://www.w3.org/2000/svg"
   xmlns:sodipodi="http://sodipodi.sourceforge.net/DTD/sodipodi-0.dtd"
   xmlns:inkscape="http://www.inkscape.org/namespaces/inkscape"
   id="master-artboard"
   viewBox="0 0 456.56446 456.56446"
   version="1.1"
   x="0px"
   y="0px"
   enable-background="new 0 0 595.3 595.3"
   width="456.56445"
   height="456.56445"
   sodipodi:docname="media.svg"
   inkscape:version="0.92.1 r15371">
  <defs
     id="defs11" />
  <sodipodi:namedview
     pagecolor="#ffffff"
     bordercolor="#666666"
     borderopacity="1"
     objecttolerance="10"
     gridtolerance="10"
     guidetolerance="10"
     inkscape:pageopacity="0"
     inkscape:pageshadow="2"
     inkscape:window-width="1920"
     inkscape:window-height="1001"
     id="namedview9"
     showgrid="false"
     inkscape:zoom="0.39643878"
     inkscape:cx="297.64999"
     inkscape:cy="-50.44855"
     inkscape:window-x="-9"
     inkscape:window-y="-9"
     inkscape:window-maximized="1"
     inkscape:current-layer="master-artboard" />
  <metadata
     id="metadata2">
    <!--?xpacket begin="﻿" id="W5M0MpCehiHzreSzNTczkc9d"?-->
    <!--?xpacket end="w"?-->
    <rdf:RDF>
      <cc:Work
         rdf:about="">
        <dc:format>image/svg+xml</dc:format>
        <dc:type
           rdf:resource="http://purl.org/dc/dcmitype/StillImage" />
        <dc:title></dc:title>
      </cc:Work>
    </rdf:RDF>
  </metadata>
  <path
     style="fill:#172727;fill-opacity:1;stroke-width:6.84931517"
     d="M 0,0 V 456.56446 H 456.56445 V 0 Z M 31.964844,40.597656 H 431.96484 v 21.232422 h -32.1914 v 24.658203 h 32.1914 v 29.451179 h -18.49218 c -5.47945,0 -9.58985,4.11039 -9.58985,9.58984 v 206.84961 c 0,5.47946 4.1104,9.58789 9.58985,9.58789 h 18.49218 v 29.45313 h -32.1914 v 24.6582 h 32.1914 v 21.23242 H 31.964844 V 396.07813 H 64.15625 v -24.6582 H 31.964844 V 341.9668 h 18.49414 c 5.479452,0 9.587891,-4.10843 9.587891,-9.58789 V 125.5293 c 0,-5.47945 -4.108439,-9.58984 -9.587891,-9.58984 H 31.964844 V 86.488281 H 64.15625 V 61.830078 H 31.964844 Z M 95.664062,61.830078 V 86.488281 H 140.18359 V 61.830078 Z m 76.027348,0 v 24.658203 h 44.51953 V 61.830078 Z m 75.34179,0 v 24.658203 h 44.52149 V 61.830078 h -43.83594 z m 76.71289,0 v 24.658203 h 44.52149 V 61.830078 Z M 99.773438,115.93946 c -5.47945,0 -9.589844,4.11039 -9.589844,9.58984 v 206.84961 c 0,5.47946 4.110394,9.58789 9.589844,9.58789 H 363.47266 c 5.47945,0 9.58789,-4.10843 9.58789,-9.58789 h -0.6836 V 125.5293 c 0,-5.47945 -4.11039,-9.58984 -9.58984,-9.58984 z m 81.507812,54.79492 50.68359,29.45312 50,28.76563 -50,29.45312 -50.68359,28.76758 v -58.2207 z M 94.978516,372.10547 v 24.65625 H 139.5 v -24.65625 z m 76.027344,0 v 24.65625 h 44.52148 v -24.65625 z m 76.02734,0 v 24.65625 h 44.52149 v -24.65625 z m 76.02735,0 v 24.65625 h 44.52148 v -24.65625 z"
     id="path4"
     inkscape:connector-curvature="0" />
</svg>
