<?xml version="1.0" encoding="UTF-8" standalone="no"?>
<svg
   xmlns:dc="http://purl.org/dc/elements/1.1/"
   xmlns:cc="http://creativecommons.org/ns#"
   xmlns:rdf="http://www.w3.org/1999/02/22-rdf-syntax-ns#"
   xmlns:svg="http://www.w3.org/2000/svg"
   xmlns="http://www.w3.org/2000/svg"
   xmlns:sodipodi="http://sodipodi.sourceforge.net/DTD/sodipodi-0.dtd"
   xmlns:inkscape="http://www.inkscape.org/namespaces/inkscape"
   id="master-artboard"
   viewBox="0 0 149 125"
   version="1.1"
   x="0px"
   y="0px"
   style="enable-background:new 0 0 841.9 595.3;"
   width="149px"
   height="125px"
   sodipodi:docname="podiumTrans.svg"
   inkscape:version="0.92.1 r15371">
  <metadata
     id="metadata16">
    <rdf:RDF>
      <cc:Work
         rdf:about="">
        <dc:format>image/svg+xml</dc:format>
        <dc:type
           rdf:resource="http://purl.org/dc/dcmitype/StillImage" />
        <dc:title></dc:title>
      </cc:Work>
    </rdf:RDF>
  </metadata>
  <defs
     id="defs14" />
  <sodipodi:namedview
     pagecolor="#ffffff"
     bordercolor="#666666"
     borderopacity="1"
     objecttolerance="10"
     gridtolerance="10"
     guidetolerance="10"
     inkscape:pageopacity="0"
     inkscape:pageshadow="2"
     inkscape:window-width="1920"
     inkscape:window-height="1001"
     id="namedview12"
     showgrid="false"
     inkscape:zoom="1.888"
     inkscape:cx="74.5"
     inkscape:cy="62.5"
     inkscape:window-x="-9"
     inkscape:window-y="-9"
     inkscape:window-maximized="1"
     inkscape:current-layer="master-artboard" />
  <path
     style="fill:#172727;fill-opacity:1;pointer-events:none"
     d="M 0 0 L 0 125 L 149 125 L 149 0 L 0 0 z M 74.017578 4.9433594 C 74.555078 4.9433594 75.104297 5.2195313 75.404297 5.7695312 L 78.404297 11.869141 C 78.604297 12.269141 79.005859 12.567969 79.505859 12.667969 L 86.205078 13.667969 C 87.405078 13.867969 87.905859 15.369531 87.005859 16.269531 L 82.205078 20.96875 C 81.905078 21.26875 81.704688 21.769531 81.804688 22.269531 L 82.904297 28.96875 C 83.104297 30.16875 81.805078 31.168359 80.705078 30.568359 L 78.205078 29.269531 C 79.005078 45.269531 84.005859 52.769531 84.005859 52.769531 L 87.505859 52.769531 C 88.505859 52.769531 89.304688 53.568359 89.304688 54.568359 L 89.304688 62.769531 L 96.505859 62.769531 C 97.805859 62.769531 98.904297 63.867969 98.904297 65.167969 L 98.904297 90.269531 L 141.70508 90.269531 C 143.00508 90.269531 144.1043 91.369531 144.4043 92.769531 L 144.4043 119.06836 C 144.4043 120.36836 143.30586 121.46875 142.00586 121.46875 L 96.804688 121.46875 L 51.605469 121.46875 L 6.4042969 121.46875 C 5.1042969 121.46875 4.0058594 120.36836 4.0058594 119.06836 L 4.0058594 78.96875 C 4.0058594 77.66875 5.1042969 76.568359 6.4042969 76.568359 L 49.205078 76.568359 L 49.205078 65.167969 C 49.205078 63.867969 50.305469 62.769531 51.605469 62.769531 L 58.804688 62.769531 L 58.804688 54.568359 C 58.804688 53.568359 59.605469 52.769531 60.605469 52.769531 L 64.105469 52.769531 C 64.105469 52.769531 69.104297 45.269531 69.904297 29.269531 L 67.404297 30.568359 C 66.304297 31.168359 65.005078 30.16875 65.205078 28.96875 L 66.304688 22.269531 C 66.404687 21.869531 66.304297 21.26875 65.904297 20.96875 L 61.105469 16.269531 C 60.205469 15.369531 60.704297 13.867969 61.904297 13.667969 L 68.605469 12.667969 C 69.105469 12.667969 69.505078 12.269141 69.705078 11.869141 L 72.705078 5.7695312 C 72.955078 5.2195313 73.480078 4.9433594 74.017578 4.9433594 z M 66.304688 55.869141 L 66.304688 62.068359 L 81.605469 62.068359 L 81.605469 55.869141 L 66.304688 55.869141 z M 53.804688 67.568359 L 53.804688 78.96875 L 53.804688 116.56836 L 94.205078 116.56836 L 94.205078 92.667969 L 94.205078 67.568359 L 53.804688 67.568359 z M 75.105469 76.769531 L 75.605469 76.769531 L 76.304688 76.769531 L 77.105469 76.769531 C 77.305469 76.769531 77.505469 76.869141 77.605469 76.869141 C 77.705469 76.869141 77.804688 76.86875 77.804688 76.96875 L 77.804688 77.167969 L 74.804688 92.068359 L 77.804688 92.068359 C 77.904688 92.068359 78.005469 92.067969 78.105469 92.167969 C 78.205469 92.267969 78.205078 92.368359 78.205078 92.568359 L 78.205078 92.869141 C 78.205078 93.069141 78.105469 93.169141 78.105469 93.369141 C 78.105469 93.569141 78.005859 93.669141 78.005859 93.869141 C 77.905859 94.069141 77.904687 94.269141 77.804688 94.369141 C 77.804688 94.569141 77.705469 94.669531 77.605469 94.769531 C 77.505469 94.869531 77.404687 94.869141 77.304688 94.869141 L 67.404297 94.869141 C 67.304297 94.869141 67.205469 94.767969 67.105469 94.667969 C 67.005469 94.567969 67.005859 94.367969 67.005859 94.167969 L 67.005859 93.869141 C 67.005859 93.769141 67.105469 93.66875 67.105469 93.46875 C 67.105469 93.26875 67.105078 93.16875 67.205078 92.96875 C 67.305078 92.76875 67.304297 92.56875 67.404297 92.46875 C 67.404297 92.36875 67.505469 92.267969 67.605469 92.167969 C 67.705469 92.067969 67.804297 92.068359 67.904297 92.068359 L 71.205078 92.068359 L 73.505859 80.46875 L 70.304688 82.068359 C 70.104688 82.168359 69.904687 82.269531 69.804688 82.269531 L 69.505859 82.269531 C 69.505859 82.169531 69.404297 82.168359 69.404297 82.068359 L 69.404297 81.769531 L 69.404297 81.269531 C 69.404297 81.069531 69.405859 80.768359 69.505859 80.568359 C 69.605859 80.268359 69.704688 80.069141 69.804688 79.869141 C 69.904687 79.669141 70.005078 79.56875 70.205078 79.46875 L 74.605469 76.96875 C 74.705469 76.96875 74.704688 76.869141 74.804688 76.869141 C 74.904688 76.769141 75.005469 76.769531 75.105469 76.769531 z M 8.6054688 81.369141 L 8.6054688 116.66797 L 49.005859 116.66797 L 49.005859 81.369141 L 8.6054688 81.369141 z M 30.804688 89.869141 C 31.704688 89.869141 32.605078 90.069531 33.205078 90.269531 C 33.805078 90.469531 34.305078 90.767969 34.705078 91.167969 C 35.105078 91.567969 35.304687 91.967969 35.804688 92.167969 C 35.904687 92.667969 36.005859 93.168359 36.005859 93.568359 C 36.005859 93.968359 36.004297 94.369531 35.904297 94.769531 C 35.804297 95.169531 35.705859 95.668359 35.505859 96.068359 C 35.305859 96.568359 35.104688 96.96875 34.804688 97.46875 C 34.504688 97.86875 34.105469 98.36875 33.605469 98.96875 C 33.105469 99.56875 32.604297 100.16953 31.904297 100.76953 C 31.304297 101.36953 30.505469 102.06953 29.605469 102.76953 L 27.005859 104.96875 L 33.904297 104.96875 C 34.004297 104.96875 34.105078 105.06797 34.205078 105.16797 C 34.305078 105.36797 34.304688 105.46797 34.304688 105.66797 L 34.304688 105.96875 C 34.304688 106.16875 34.205078 106.26875 34.205078 106.46875 C 34.205078 106.66875 34.205469 106.76875 34.105469 106.96875 C 34.005469 107.16875 34.004297 107.36875 33.904297 107.46875 C 33.904297 107.66875 33.805078 107.76914 33.705078 107.86914 C 33.605078 107.96914 33.504297 107.96875 33.404297 107.96875 L 23.105469 107.96875 L 22.605469 107.96875 C 22.505469 107.96875 22.404687 107.96914 22.304688 107.86914 C 22.204688 107.86914 22.105469 107.76797 22.105469 107.66797 L 22.105469 107.36914 L 22.105469 106.76953 C 22.205469 106.46953 22.204688 106.26875 22.304688 105.96875 C 22.404687 105.66875 22.505078 105.36836 22.705078 105.06836 C 22.905078 104.76836 23.104297 104.56953 23.404297 104.26953 L 27.605469 100.56836 C 28.205469 100.06836 28.705469 99.567969 29.105469 99.167969 C 29.505469 98.767969 29.805469 98.36875 30.105469 97.96875 C 30.405469 97.66875 30.604688 97.26875 30.804688 96.96875 C 31.004688 96.66875 31.105078 96.368359 31.205078 96.068359 C 31.305078 95.868359 31.404297 95.569141 31.404297 95.369141 L 31.404297 94.769531 C 31.404297 94.569531 31.404687 94.367969 31.304688 94.167969 C 31.204687 93.967969 31.105859 93.867969 31.005859 93.667969 C 30.805859 93.467969 30.604297 93.369531 30.404297 93.269531 C 30.204297 93.169531 29.905859 93.068359 29.505859 93.068359 C 29.005859 93.068359 28.505469 93.169531 28.105469 93.269531 C 27.705469 93.469531 27.304297 93.569531 26.904297 93.769531 C 26.604297 93.969531 26.305859 94.169531 26.005859 94.269531 C 25.805859 94.369531 25.605859 94.46875 25.505859 94.46875 C 25.305859 94.46875 25.305078 94.369531 25.205078 94.269531 C 25.105078 94.069531 25.105469 93.969531 25.105469 93.769531 L 25.105469 93.46875 L 25.105469 93.068359 C 25.105469 92.868359 25.205078 92.768359 25.205078 92.568359 C 25.205078 92.368359 25.304688 92.268359 25.304688 92.068359 C 25.404687 91.968359 25.405859 91.767969 25.505859 91.667969 C 25.505859 91.567969 25.605078 91.469141 25.705078 91.369141 C 25.905078 91.269141 26.104297 91.16875 26.404297 90.96875 C 26.704297 90.76875 27.105469 90.66875 27.605469 90.46875 C 28.005469 90.36875 28.505469 90.168359 29.105469 90.068359 C 29.605469 89.968359 30.204688 89.869141 30.804688 89.869141 z M 98.904297 95.167969 L 98.904297 116.66797 L 139.30469 116.66797 L 139.30469 95.167969 L 98.904297 95.167969 z M 120.9043 96.568359 C 121.8043 96.568359 122.50547 96.669141 123.10547 96.869141 C 123.70547 97.069141 124.20547 97.367969 124.60547 97.667969 C 125.00547 97.967969 125.30586 98.369141 125.50586 98.869141 C 125.70586 99.369141 125.80469 99.86875 125.80469 100.46875 C 125.80469 101.06875 125.70586 101.56797 125.50586 102.16797 C 125.30586 102.66797 125.10508 103.16797 124.70508 103.66797 C 124.30508 104.16797 123.9043 104.56914 123.4043 104.86914 C 122.9043 105.16914 122.30508 105.36836 121.70508 105.56836 C 122.30508 105.56836 122.80508 105.76875 123.20508 105.96875 C 123.60508 106.16875 123.90508 106.46953 124.20508 106.76953 C 124.50508 107.06953 124.70469 107.36953 124.80469 107.76953 C 124.90469 108.16953 125.00586 108.46914 125.00586 108.86914 C 125.00586 109.36914 124.90469 109.76953 124.80469 110.26953 C 124.70469 110.76953 124.60469 111.16797 124.30469 111.66797 C 124.00469 112.06797 123.70469 112.56875 123.30469 112.96875 C 122.90469 113.36875 122.40469 113.76836 121.80469 114.06836 C 121.20469 114.46836 120.50508 114.66914 119.70508 114.86914 C 118.90508 115.06914 118.00586 115.16797 117.00586 115.16797 C 116.50586 115.16797 116.10508 115.16836 115.70508 115.06836 C 115.30508 115.06836 114.90586 114.96914 114.50586 114.86914 C 114.20586 114.76914 113.80586 114.66836 113.50586 114.56836 C 113.20586 114.46836 112.90508 114.26797 112.70508 114.16797 C 112.60508 114.06797 112.40586 113.96797 112.50586 113.66797 C 112.40586 113.56797 112.4043 113.36797 112.4043 113.16797 L 112.4043 112.86914 C 112.5043 112.66914 112.50586 112.56914 112.50586 112.36914 C 112.50586 112.16914 112.60547 112.06914 112.60547 111.86914 C 112.60547 111.66914 112.60508 111.46914 112.70508 111.36914 C 112.80508 111.26914 112.8043 111.16836 112.9043 111.06836 C 112.9043 110.96836 113.00547 110.96875 113.10547 110.96875 C 113.20547 110.96875 113.40547 111.06797 113.60547 111.16797 C 113.80547 111.26797 114.1043 111.46836 114.4043 111.56836 C 114.7043 111.66836 115.10586 111.86875 115.50586 111.96875 C 115.90586 112.06875 116.40586 112.16797 117.00586 112.16797 C 117.70586 112.16797 118.20508 112.06914 118.70508 111.86914 C 119.20508 111.66914 119.6043 111.46797 119.9043 111.16797 C 120.2043 110.86797 120.40547 110.56797 120.60547 110.16797 C 120.70547 109.86797 120.80469 109.46836 120.80469 109.06836 C 120.80469 108.76836 120.70547 108.56953 120.60547 108.26953 C 120.50547 107.96953 120.40547 107.76836 120.10547 107.56836 C 119.80547 107.36836 119.50547 107.16836 119.10547 107.06836 C 118.70547 106.96836 118.20547 106.86914 117.60547 106.86914 L 115.9043 106.86914 C 115.7043 106.86914 115.60586 106.86953 115.50586 106.76953 C 115.40586 106.66953 115.4043 106.56914 115.4043 106.36914 L 115.4043 106.06836 C 115.4043 105.96836 115.50586 105.86797 115.50586 105.66797 C 115.50586 105.46797 115.50547 105.36797 115.60547 105.16797 C 115.70547 104.96797 115.70469 104.76797 115.80469 104.66797 L 116.10547 104.36914 C 116.20547 104.26914 116.3043 104.26953 116.4043 104.26953 L 118.00586 104.26953 C 118.70586 104.26953 119.20508 104.16875 119.70508 103.96875 C 120.10508 103.76875 120.6043 103.56953 120.9043 103.26953 C 121.3043 102.96953 121.50508 102.66953 121.70508 102.26953 C 121.90508 101.86953 122.00586 101.46836 122.00586 101.06836 C 122.00586 100.56836 121.80586 100.16914 121.50586 99.869141 C 121.20586 99.569141 120.6043 99.369141 119.9043 99.369141 C 119.4043 99.369141 118.90586 99.468359 118.50586 99.568359 C 118.10586 99.768359 117.70469 99.868359 117.30469 100.06836 C 116.90469 100.26836 116.60469 100.46836 116.30469 100.56836 C 116.00469 100.66836 115.80508 100.76953 115.70508 100.76953 C 115.60508 100.76953 115.60586 100.76797 115.50586 100.66797 C 115.40586 100.56797 115.4043 100.46953 115.4043 100.26953 L 115.4043 99.869141 C 115.4043 99.669141 115.40586 99.469531 115.50586 99.269531 C 115.50586 98.969531 115.60508 98.768359 115.70508 98.568359 C 115.80508 98.368359 115.90586 98.168359 116.00586 98.068359 C 116.10586 97.968359 116.30547 97.867969 116.60547 97.667969 C 116.90547 97.467969 117.20508 97.367969 117.70508 97.167969 C 118.10508 97.067969 118.60508 96.869531 119.20508 96.769531 C 119.70508 96.669531 120.3043 96.568359 120.9043 96.568359 z "
     id="ee-background" />
</svg>
