<?xml version="1.0" encoding="utf-8"?>
<svg id="master-artboard" viewBox="0 0 149 125" version="1.1" xmlns="http://www.w3.org/2000/svg" x="0px" y="0px" style="enable-background:new 0 0 841.9 595.3;" width="149px" height="125px"><rect id="ee-background" x="0" y="0" width="149" height="125" style="fill: white; fill-opacity: 0; pointer-events: none;"/>

<path class="st3" d="M271.1,326h-42.8v-25.1c0-1.3-1.1-2.4-2.4-2.4h-7.2v-8.2c0-1-0.8-1.8-1.8-1.8h-3.5c0,0-5-7.5-5.8-23.5&#10;&#9;&#9;&#9;l2.5,1.3c1.1,0.6,2.4-0.4,2.2-1.6l-1.1-6.7c-0.1-0.5,0.1-1,0.4-1.3l4.8-4.7c0.9-0.9,0.4-2.4-0.8-2.6l-6.7-1&#10;&#9;&#9;&#9;c-0.5-0.1-0.9-0.4-1.1-0.8l-3-6.1c-0.6-1.1-2.2-1.1-2.7,0l-3,6.1c-0.2,0.4-0.6,0.8-1.1,0.8l-6.7,1c-1.2,0.2-1.7,1.7-0.8,2.6&#10;&#9;&#9;&#9;l4.8,4.7c0.4,0.3,0.5,0.9,0.4,1.3l-1.1,6.7c-0.2,1.2,1.1,2.2,2.2,1.6l2.5-1.3c-0.8,16-5.8,23.5-5.8,23.5h-3.5&#10;&#9;&#9;&#9;c-1,0-1.8,0.8-1.8,1.8v8.2h-7.2c-1.3,0-2.4,1.1-2.4,2.4v11.4h-42.8c-1.3,0-2.4,1.1-2.4,2.4v40.1c0,1.3,1.1,2.4,2.4,2.4h45.2h45.2&#10;&#9;&#9;&#9;h45.2c1.3,0,2.4-1.1,2.4-2.4v-26.3C273.5,327.1,272.4,326,271.1,326z M195.7,291.6H211v6.2h-15.3V291.6z M138,317.1h40.4v35.3H138&#10;&#9;&#9;&#9;V317.1z M183.2,314.7v-11.4h40.4v25.1v23.9h-40.4V314.7z M268.7,352.4h-40.4v-21.5h40.4V352.4z" style="fill: rgb(43, 182, 115);" transform="matrix(1, 0, 0, 1, -129.39508056640625, -235.7311248779297)"/><path class="st3" d="M207.2,327.8h-3l3-14.9c0-0.1,0-0.2,0-0.2c0-0.1-0.1-0.1-0.2-0.1c-0.1,0-0.3-0.1-0.5-0.1c-0.2,0-0.5,0-0.8,0&#10;&#9;&#9;&#9;c-0.3,0-0.5,0-0.7,0c-0.2,0-0.3,0-0.5,0c-0.1,0-0.2,0-0.3,0.1c-0.1,0-0.1,0.1-0.2,0.1l-4.4,2.5c-0.2,0.1-0.3,0.2-0.4,0.4&#10;&#9;&#9;&#9;c-0.1,0.2-0.2,0.4-0.3,0.7c-0.1,0.2-0.1,0.5-0.1,0.7c0,0.2,0,0.4,0,0.5c0,0.1,0,0.3,0,0.3c0,0.1,0.1,0.1,0.1,0.2&#10;&#9;&#9;&#9;c0.1,0,0.2,0,0.3,0c0.1,0,0.3-0.1,0.5-0.2l3.2-1.6l-2.3,11.6h-3.3c-0.1,0-0.2,0-0.3,0.1c-0.1,0.1-0.2,0.2-0.2,0.3&#10;&#9;&#9;&#9;c-0.1,0.1-0.1,0.3-0.2,0.5c-0.1,0.2-0.1,0.3-0.1,0.5c0,0.2-0.1,0.3-0.1,0.4c0,0.1,0,0.2,0,0.3c0,0.2,0,0.4,0.1,0.5&#10;&#9;&#9;&#9;c0.1,0.1,0.2,0.2,0.3,0.2h9.9c0.1,0,0.2,0,0.3-0.1c0.1-0.1,0.2-0.2,0.2-0.4c0.1-0.1,0.1-0.3,0.2-0.5c0-0.2,0.1-0.3,0.1-0.5&#10;&#9;&#9;&#9;c0-0.2,0.1-0.3,0.1-0.5c0-0.1,0-0.2,0-0.3c0-0.2,0-0.3-0.1-0.4C207.4,327.8,207.3,327.8,207.2,327.8z" style="fill: rgb(43, 182, 115);" transform="matrix(1, 0, 0, 1, -129.39508056640625, -235.7311248779297)"/><path class="st3" d="M164.1,326.9c-0.4-0.4-0.9-0.7-1.5-0.9c-0.6-0.2-1.5-0.4-2.4-0.4c-0.6,0-1.2,0.1-1.7,0.2&#10;&#9;&#9;&#9;c-0.6,0.1-1.1,0.3-1.5,0.4c-0.5,0.2-0.9,0.3-1.2,0.5c-0.3,0.2-0.5,0.3-0.7,0.4c-0.1,0.1-0.2,0.2-0.2,0.3c-0.1,0.1-0.1,0.3-0.2,0.4&#10;&#9;&#9;&#9;c0,0.2-0.1,0.3-0.1,0.5c0,0.2-0.1,0.3-0.1,0.5c0,0.2,0,0.3,0,0.4c0,0.1,0,0.2,0,0.3c0,0.2,0,0.3,0.1,0.5c0.1,0.1,0.1,0.2,0.3,0.2&#10;&#9;&#9;&#9;c0.1,0,0.3-0.1,0.5-0.2c0.3-0.1,0.6-0.3,0.9-0.5c0.4-0.2,0.8-0.3,1.2-0.5c0.4-0.1,0.9-0.2,1.4-0.2c0.4,0,0.7,0.1,0.9,0.2&#10;&#9;&#9;&#9;c0.2,0.1,0.4,0.2,0.6,0.4c0.1,0.2,0.2,0.3,0.3,0.5c0.1,0.2,0.1,0.4,0.1,0.6c0,0.2,0,0.4,0,0.6c0,0.2-0.1,0.5-0.2,0.7&#10;&#9;&#9;&#9;c-0.1,0.3-0.2,0.6-0.4,0.9c-0.2,0.3-0.4,0.7-0.7,1c-0.3,0.4-0.6,0.8-1,1.2c-0.4,0.4-0.9,0.9-1.5,1.4l-4.2,3.7&#10;&#9;&#9;&#9;c-0.3,0.3-0.5,0.5-0.7,0.8c-0.2,0.3-0.3,0.6-0.4,0.9c-0.1,0.3-0.1,0.5-0.2,0.8c0,0.2,0,0.4,0,0.6c0,0.1,0,0.2,0,0.3&#10;&#9;&#9;&#9;c0,0.1,0.1,0.2,0.2,0.2c0.1,0.1,0.2,0.1,0.3,0.1c0.1,0,0.3,0,0.5,0h10.3c0.1,0,0.2,0,0.3-0.1c0.1-0.1,0.2-0.2,0.2-0.4&#10;&#9;&#9;&#9;c0.1-0.1,0.1-0.3,0.2-0.5c0.1-0.2,0.1-0.3,0.1-0.5c0-0.2,0.1-0.3,0.1-0.5c0-0.1,0-0.2,0-0.3c0-0.2,0-0.3-0.1-0.5&#10;&#9;&#9;&#9;c-0.1-0.1-0.2-0.2-0.3-0.2h-6.9l2.6-2.2c0.9-0.7,1.7-1.4,2.3-2c0.7-0.6,1.2-1.2,1.7-1.8c0.5-0.6,0.9-1.1,1.2-1.5&#10;&#9;&#9;&#9;c0.3-0.5,0.5-0.9,0.7-1.4c0.2-0.4,0.3-0.9,0.4-1.3c0.1-0.4,0.1-0.8,0.1-1.2c0-0.4-0.1-0.9-0.2-1.4&#10;&#9;&#9;&#9;C164.7,327.7,164.5,327.3,164.1,326.9z" style="fill: rgb(43, 182, 115);" transform="matrix(1, 0, 0, 1, -129.39508056640625, -235.7311248779297)"/><path class="st3" d="M242.1,349.9c0.2,0.1,0.5,0.3,0.8,0.4c0.3,0.1,0.7,0.2,1,0.3c0.4,0.1,0.8,0.2,1.2,0.2&#10;&#9;&#9;&#9;c0.4,0.1,0.8,0.1,1.3,0.1c1,0,1.9-0.1,2.7-0.3c0.8-0.2,1.5-0.4,2.1-0.8c0.6-0.3,1.1-0.7,1.5-1.1c0.4-0.4,0.7-0.9,1-1.3&#10;&#9;&#9;&#9;c0.3-0.5,0.4-0.9,0.5-1.4c0.1-0.5,0.2-0.9,0.2-1.4c0-0.4-0.1-0.7-0.2-1.1c-0.1-0.4-0.3-0.7-0.6-1c-0.3-0.3-0.6-0.6-1-0.8&#10;&#9;&#9;&#9;c-0.4-0.2-0.9-0.4-1.5-0.4v0c0.6-0.2,1.2-0.4,1.7-0.7c0.5-0.3,0.9-0.7,1.3-1.2c0.4-0.5,0.6-1,0.8-1.5c0.2-0.6,0.3-1.1,0.3-1.7&#10;&#9;&#9;&#9;c0-0.6-0.1-1.1-0.3-1.6c-0.2-0.5-0.5-0.9-0.9-1.2c-0.4-0.3-0.9-0.6-1.5-0.8c-0.6-0.2-1.3-0.3-2.2-0.3c-0.6,0-1.2,0.1-1.7,0.2&#10;&#9;&#9;&#9;c-0.6,0.1-1.1,0.3-1.5,0.4c-0.5,0.2-0.8,0.3-1.1,0.5c-0.3,0.2-0.5,0.3-0.6,0.4c-0.1,0.1-0.2,0.3-0.3,0.5c-0.1,0.2-0.2,0.4-0.2,0.7&#10;&#9;&#9;&#9;c-0.1,0.2-0.1,0.4-0.1,0.6c0,0.2,0,0.3,0,0.4c0,0.2,0,0.3,0.1,0.4c0.1,0.1,0.1,0.1,0.2,0.1c0.1,0,0.3-0.1,0.6-0.2&#10;&#9;&#9;&#9;c0.3-0.1,0.6-0.3,1-0.5c0.4-0.2,0.8-0.3,1.2-0.5c0.4-0.1,0.9-0.2,1.4-0.2c0.7,0,1.3,0.2,1.6,0.5c0.3,0.3,0.5,0.7,0.5,1.2&#10;&#9;&#9;&#9;c0,0.4-0.1,0.8-0.3,1.2c-0.2,0.4-0.4,0.7-0.8,1c-0.3,0.3-0.8,0.5-1.2,0.7c-0.5,0.2-1,0.3-1.7,0.3h-1.6c-0.1,0-0.2,0-0.3,0.1&#10;&#9;&#9;&#9;c-0.1,0.1-0.2,0.2-0.3,0.3c-0.1,0.1-0.1,0.3-0.2,0.5c-0.1,0.2-0.1,0.3-0.1,0.5c0,0.2-0.1,0.3-0.1,0.4c0,0.1,0,0.2,0,0.3&#10;&#9;&#9;&#9;c0,0.2,0,0.3,0.1,0.4c0.1,0.1,0.2,0.1,0.4,0.1h1.7c0.6,0,1.1,0.1,1.5,0.2c0.4,0.1,0.7,0.3,1,0.5c0.3,0.2,0.4,0.4,0.5,0.7&#10;&#9;&#9;&#9;c0.1,0.3,0.2,0.5,0.2,0.8c0,0.4-0.1,0.8-0.2,1.1c-0.2,0.4-0.4,0.7-0.7,1c-0.3,0.3-0.7,0.5-1.2,0.7c-0.5,0.2-1,0.3-1.7,0.3&#10;&#9;&#9;&#9;c-0.6,0-1.1-0.1-1.5-0.2c-0.4-0.1-0.8-0.3-1.1-0.4c-0.3-0.1-0.6-0.3-0.8-0.4c-0.2-0.1-0.4-0.2-0.5-0.2c-0.1,0-0.2,0-0.2,0.1&#10;&#9;&#9;&#9;c-0.1,0.1-0.1,0.2-0.2,0.3c-0.1,0.1-0.1,0.3-0.1,0.5c0,0.2-0.1,0.3-0.1,0.5c0,0.2,0,0.3-0.1,0.5c0,0.1,0,0.2,0,0.3&#10;&#9;&#9;&#9;c0,0.2,0,0.4,0.1,0.5C241.8,349.7,242,349.8,242.1,349.9z" style="fill: rgb(43, 182, 115);" transform="matrix(1, 0, 0, 1, -129.39508056640625, -235.7311248779297)"/>
</svg>