<?xml version="1.0" encoding="utf-8"?>
<svg id="master-artboard" viewBox="0 0 400 400" version="1.1" xmlns="http://www.w3.org/2000/svg" x="0px" y="0px" width="400px" height="400px" enable-background="new 0 0 1400 980"><rect id="ee-background" x="0" y="0" width="400" height="400" style="fill: rgb(23, 39, 39); fill-opacity: 1; pointer-events: none;"/>










<g transform="matrix(1, 0, 0, 1, -44.06599044799805, -493.34752275791254)">
	<g>
		<path fill="#FFFFFF" d="M365,785.6l-68.5-68.5c11-16.6,16.9-36,16.9-56.3c0-27.3-10.6-53-29.9-72.3c-19.3-19.3-45-29.9-72.2-29.9&#10;&#9;&#9;&#9;h0c-56.3,0-102.2,45.8-102.2,102.2c0,56.3,45.8,102.2,102.2,102.2c20.3,0,39.7-5.9,56.3-16.9l68.5,68.5c4,4,10.5,4,14.5,0&#10;&#9;&#9;&#9;l14.5-14.5C369,796.1,369,789.6,365,785.6z M136.4,660.8c0-41.3,33.6-74.9,74.9-74.9c20,0,38.8,7.8,52.9,21.9&#10;&#9;&#9;&#9;c14.1,14.1,21.9,32.9,21.9,52.9c0,20-7.8,38.8-21.9,52.9c-14.1,14.1-32.9,21.9-52.9,21.9C169.9,735.7,136.4,702.1,136.4,660.8z" style="fill: rgb(255, 140, 0);"/>
	</g>
</g>


</svg>